<svg xmlns="http://www.w3.org/2000/svg" version="1.1" xmlns:xlink="http://www.w3.org/1999/xlink" xmlns:svgjs="http://svgjs.dev/svgjs" width="1000" height="1000" viewBox="0 0 1000 1000"><rect width="1000" height="1000" fill="#fefee2"></rect><g transform="matrix(0.7,0,0,0.7,149.66216875252667,238.411983805668)"><svg viewBox="0 0 330 247" data-background-color="#fefee2" preserveAspectRatio="xMidYMid meet" height="748" width="1000" xmlns="http://www.w3.org/2000/svg" xmlns:xlink="http://www.w3.org/1999/xlink"><g id="tight-bounds" transform="matrix(1,0,0,1,0.15926331687549578,-0.09999999999999432)"><svg viewBox="0 0 329.6814715398502 247.2" height="247.2" width="329.6814715398502"><g><svg viewBox="0 0 395.52 296.56669373420266" height="247.2" width="329.6814715398502"><g transform="matrix(1,0,0,1,0,217.40743432640073)"><svg viewBox="0 0 395.52 79.15925940780193" height="79.15925940780193" width="395.52"><g><svg viewBox="0 0 395.52 79.15925940780193" height="79.15925940780193" width="395.52"><g><svg viewBox="0 0 395.52 51.05925042205965" height="51.05925042205965" width="395.52"><g transform="matrix(1,0,0,1,0,0)"><svg width="395.52" viewBox="4.980000019073486 -45.79999923706055 433.80999755859375 56.0099983215332" height="51.05925042205965" data-palette-color="#6e7a73"><path d="M58.25-8.3L58.25-8.3Q58.25-7.67 57.91-7.15 57.57-6.64 57.71-5.96L57.71-5.96Q57.52-5.62 57.2-5.42 56.88-5.22 56.98-4.69L56.98-4.69Q55.96-4.15 55.1-3.34 54.25-2.54 53.27-1.81L53.27-1.81Q52.69-1.37 52.27-1.2 51.86-1.03 51.27-0.68L51.27-0.68 50.05 0.1Q49.22 0.54 48.36 0.98 47.51 1.42 46.83 2.1L46.83 2.1Q45.8 2.15 44.73 2.66 43.65 3.17 42.68 3.56L42.68 3.56Q42.29 3.71 41.89 3.78 41.5 3.86 41.11 4.05L41.11 4.05 40.33 4.39Q39.65 4.74 38.72 5.1 37.79 5.47 37.06 5.47L37.06 5.47Q36.62 5.66 36.33 6.15L36.33 6.15Q34.72 6.69 33.01 6.98 31.3 7.28 29.69 7.91L29.69 7.91Q29.15 8.15 28.59 8.57 28.03 8.98 27.39 8.94L27.39 8.94Q27.25 9.18 27.2 9.52 27.15 9.86 27.05 10.21L27.05 10.21 26.9 10.21Q26.71 10.21 26.73 10.01 26.76 9.81 26.56 9.81L26.56 9.81Q26.42 9.81 26.37 9.86L26.37 9.86Q25.73 10.01 25.17 10.11 24.61 10.21 23.93 10.21L23.93 10.21Q23.54 10.21 22.68 10.11 21.83 10.01 21.44 9.86L21.44 9.86Q21.14 9.72 20.95 9.33 20.75 8.94 20.58 8.5 20.41 8.06 20.29 7.59 20.17 7.13 20.07 6.84L20.07 6.84Q20.21 6.3 20.56 5.96 20.9 5.62 21.09 5.08L21.09 5.08Q21.53 5.03 21.97 4.93 22.41 4.83 22.85 4.88L22.85 4.88Q24.37 4.44 25.9 4.03 27.44 3.61 28.96 3.17 30.47 2.73 31.93 2.2 33.4 1.66 34.77 0.88L34.77 0.88 35.79 0.88Q36.67 0.39 37.74 0.05 38.82-0.29 39.5-1.07L39.5-1.07Q41.11-1.42 42.87-2 44.63-2.59 45.8-3.86L45.8-3.86Q46.53-3.96 47.07-4.22 47.61-4.49 48.1-4.79L48.1-4.79 49.07-5.42Q49.56-5.76 50.2-5.96L50.2-5.96Q50.59-6.35 50.93-6.79 51.27-7.23 51.76-7.52L51.76-7.52Q51.61-8.3 50.98-8.69 50.34-9.08 49.85-9.62L49.85-9.62 48.78-9.62Q47.51-10.4 46.07-10.82 44.63-11.23 43.21-11.72L43.21-11.72Q43.12-11.77 42.97-11.77L42.97-11.77Q42.63-11.77 42.55-11.52 42.48-11.28 42.14-11.33L42.14-11.33Q41.7-11.62 41.21-11.69 40.72-11.77 40.19-11.77L40.19-11.77Q39.5-11.77 38.84-11.69 38.18-11.62 37.5-11.62L37.5-11.62Q37.16-11.62 36.82-11.67 36.47-11.72 36.13-11.91L36.13-11.91 35.5-11.91Q34.47-11.91 33.47-11.84 32.47-11.77 31.49-11.77L31.49-11.77Q30.96-11.77 30.47-11.79 29.98-11.82 29.49-11.91L29.49-11.91Q28.47-11.43 27.29-11.23 26.12-11.04 24.88-10.94 23.63-10.84 22.41-10.77 21.19-10.69 20.07-10.5L20.07-10.5Q19.78-10.55 19.51-10.57 19.24-10.6 18.99-10.6L18.99-10.6Q18.75-10.6 18.48-10.57 18.21-10.55 17.97-10.5L17.97-10.5Q17.33-11.18 16.43-11.5 15.53-11.82 14.65-11.91L14.65-11.91Q13.96-12.74 13.65-13.6 13.33-14.45 13.23-15.53L13.23-15.53 13.43-15.53Q13.77-15.53 13.75-15.87 13.72-16.21 13.96-16.46L13.96-16.46Q14.21-16.75 14.62-16.87 15.04-16.99 15.43-17.14 15.82-17.29 16.19-17.5 16.55-17.72 16.75-18.21L16.75-18.21 17.38-18.21Q17.58-18.21 17.8-18.19 18.02-18.16 18.16-18.02L18.16-18.02Q18.36-18.21 18.65-18.36 18.95-18.51 19.21-18.65 19.48-18.8 19.68-18.99 19.87-19.19 19.92-19.58L19.92-19.58Q19.97-19.43 20.17-19.43L20.17-19.43Q20.36-19.43 20.53-19.53 20.7-19.63 20.95-19.58L20.95-19.58Q21.19-20.26 21.78-20.31 22.36-20.36 22.85-20.65L22.85-20.65Q23.19-20.85 23.49-21.12 23.78-21.39 24.12-21.63L24.12-21.63 27.05-23.88 31.54-27.29Q33.79-29 36.13-30.47L36.13-30.47Q36.23-30.76 36.43-30.91 36.62-31.05 36.82-31.23 37.01-31.4 37.13-31.59 37.26-31.79 37.21-32.18L37.21-32.18Q37.89-32.32 38.26-32.71 38.62-33.11 38.92-33.57 39.21-34.03 39.53-34.5 39.84-34.96 40.38-35.21L40.38-35.21Q40.33-35.35 40.33-35.64L40.33-35.64Q40.33-36.04 40.41-36.43 40.48-36.82 40.77-37.11L40.77-37.11Q40.33-38.13 39.26-38.6 38.18-39.06 37.21-39.4L37.21-39.4 37.06-39.4Q36.82-39.4 36.79-39.18 36.77-38.96 36.52-38.87L36.52-38.87Q35.74-39.06 34.77-39.06L34.77-39.06Q33.79-39.06 32.84-38.92 31.88-38.77 30.91-38.87L30.91-38.87Q30.76-38.67 30.59-38.48 30.42-38.28 30.18-38.13L30.18-38.13Q29.15-38.09 28.13-37.84L28.13-37.84 26.07-37.35 24.95-37.11Q24.71-37.01 24.61-36.77 24.51-36.52 24.46-36.23L24.46-36.23Q24.17-36.28 24.1-36.47 24.02-36.67 23.73-36.77L23.73-36.77Q22.61-36.08 21.31-35.64 20.02-35.21 18.99-34.28L18.99-34.28Q18.65-34.67 18.02-34.67L18.02-34.67Q17.48-34.67 16.85-34.33 16.21-33.98 16.06-33.45L16.06-33.45Q15.58-33.54 15.33-33.54L15.33-33.54Q14.79-33.54 14.43-33.25 14.06-32.96 13.72-32.59 13.38-32.23 12.99-31.88 12.6-31.54 12.01-31.49L12.01-31.49Q12.01-31.25 12.04-30.98 12.06-30.71 12.06-30.42L12.06-30.42Q12.06-28.22 11.82-26.05 11.57-23.88 11.57-21.68L11.57-21.68Q11.57-21.19 11.62-20.73 11.67-20.26 11.67-19.73L11.67-19.73Q11.67-19.58 11.45-19.09 11.23-18.6 11.13-18.36L11.13-18.36Q11.33-17.82 11.3-17.29 11.28-16.75 11.52-16.26L11.52-16.26Q11.08-15.87 11.08-15.19L11.08-15.19Q11.08-14.89 11.11-14.6 11.13-14.31 11.13-14.01L11.13-14.01 11.13-13.43Q10.99-12.45 10.94-11.45 10.89-10.45 10.89-9.47L10.89-9.47Q10.89-9.03 10.91-7.98 10.94-6.93 11.04-5.64 11.13-4.35 11.33-2.98 11.52-1.61 11.84-0.46 12.16 0.68 12.65 1.42 13.13 2.15 13.82 2.15L13.82 2.15Q13.96 2.15 14.18 2.1 14.4 2.05 14.4 1.86L14.4 1.86Q14.4 1.66 14.33 1.51 14.26 1.37 14.26 1.17L14.26 1.17 14.31 1.07Q14.7 1.27 15.16 1.32 15.63 1.37 16.11 1.42 16.6 1.46 17.04 1.59 17.48 1.71 17.82 2.1L17.82 2.1Q17.63 2.49 17.63 2.93L17.63 2.93Q17.63 3.52 17.92 4.03 18.21 4.54 18.31 5.08L18.31 5.08Q17.38 5.37 16.63 5.74 15.87 6.1 15.14 6.42 14.4 6.74 13.57 7.01 12.74 7.28 11.67 7.37L11.67 7.37Q10.99 6.93 10.5 6.59 10.01 6.25 9.18 6.15L9.18 6.15Q7.91 4.44 7.08 2.32 6.25 0.2 5.79-2.1 5.32-4.39 5.15-6.71 4.98-9.03 4.98-11.08L4.98-11.08Q4.98-13.33 5.15-15.55 5.32-17.77 5.62-20.02L5.62-20.02Q5.71-20.7 5.81-21.41 5.91-22.12 6.01-22.8L6.01-22.8Q6.1-23.05 6.18-23.36 6.25-23.68 6.25-23.93L6.25-23.93Q6.25-24.76 6.2-25.59 6.15-26.42 6.15-27.2L6.15-27.2Q6.15-28.42 6.3-29.69L6.3-29.69Q6.35-29.93 6.47-30.32 6.59-30.71 6.59-31.01L6.59-31.01Q6.59-31.4 6.4-31.54 6.2-31.69 6.05-32.03L6.05-32.03Q6.2-32.52 6.3-32.98 6.4-33.45 6.4-33.94L6.4-33.94Q6.4-34.86 6.05-35.55L6.05-35.55Q6.3-36.82 6.79-38.04 7.28-39.26 8.5-39.89L8.5-39.89Q9.47-39.84 10.47-39.7 11.47-39.55 12.21-38.87L12.21-38.87Q12.55-39.06 12.99-39.11L12.99-39.11 13.92-39.21Q14.4-39.26 14.79-39.38 15.19-39.5 15.48-39.89L15.48-39.89Q16.46-40.09 17.58-40.45 18.7-40.82 19.53-41.31L19.53-41.31 20.61-41.31Q20.95-41.55 21.39-41.65L21.39-41.65 22.31-41.89Q22.8-42.04 23.22-42.19 23.63-42.33 23.88-42.68L23.88-42.68 24.07-42.68Q25.2-42.68 26.27-43.16 27.34-43.65 28.37-44.04L28.37-44.04Q28.61-44.14 29.13-44.38 29.64-44.63 29.83-44.63L29.83-44.63Q30.52-44.73 31.2-44.75 31.88-44.78 32.57-44.92L32.57-44.92Q34.13-45.17 35.67-45.48 37.21-45.8 38.77-45.8L38.77-45.8Q39.31-45.8 39.77-45.78 40.23-45.75 40.77-45.7L40.77-45.7Q40.82-45.51 41.02-45.39 41.21-45.26 41.38-45.17 41.55-45.07 41.7-44.9 41.85-44.73 41.8-44.43L41.8-44.43Q41.89-44.34 41.99-44.34L41.99-44.34Q42.14-44.34 42.26-44.48 42.38-44.63 42.63-44.63L42.63-44.63 42.87-44.63Q43.51-43.95 44.12-43.33 44.73-42.72 45.65-42.33L45.65-42.33Q46.04-40.87 46.58-39.45 47.12-38.04 47.12-36.43L47.12-36.43Q47.12-35.45 46.83-34.52L46.83-34.52Q46.14-34.18 45.85-33.45 45.56-32.71 45.31-32.03L45.31-32.03Q43.95-31.35 43.02-30.22 42.09-29.1 41.11-27.98L41.11-27.98 40.33-27.98Q40.14-27.98 40.04-27.83L40.04-27.83 39.6-27.34Q39.16-26.95 38.65-26.56 38.13-26.17 37.89-25.54L37.89-25.54Q36.38-24.71 34.99-23.68 33.59-22.66 32.32-21.53L32.32-21.53Q31.79-21.09 31.25-20.53 30.71-19.97 30.18-19.58L30.18-19.58Q29.88-19.34 29.52-19.17 29.15-18.99 28.86-18.75L28.86-18.75Q28.22-18.26 27.69-17.75 27.15-17.24 26.56-16.8L26.56-16.8Q28.76-16.89 31.01-16.92 33.25-16.94 35.45-16.99L35.45-16.99Q36.57-16.99 37.65-17.07 38.72-17.14 39.84-17.14L39.84-17.14Q40.04-17.14 40.19-17.07 40.33-16.99 40.53-16.94L40.53-16.94Q41.36-16.8 41.99-16.6L41.99-16.6Q44.34-16.16 46.68-15.82 49.02-15.48 51.27-14.7L51.27-14.7Q51.9-14.45 52.22-14.16 52.54-13.87 53.37-14.01L53.37-14.01Q54.05-13.33 54.86-12.94 55.66-12.55 56.49-12.26L56.49-12.26Q57.13-11.28 57.69-10.4 58.25-9.52 58.25-8.3ZM97.21-3.56L97.21-3.56Q97.07-2.88 96.6-2.47 96.14-2.05 95.51-1.81 94.87-1.56 94.21-1.49 93.55-1.42 93.02-1.42L93.02-1.42Q92.77-1.42 92.55-1.44 92.33-1.46 92.09-1.46L92.09-1.46Q91.84-1.46 91.84-1.22 91.84-0.98 91.6-0.88L91.6-0.88Q91.35-0.98 91.11-1.03 90.87-1.07 90.62-1.07L90.62-1.07Q90.28-1.07 89.96-1.03 89.65-0.98 89.35-0.98L89.35-0.98Q88.96-0.98 88.79-1.07 88.62-1.17 88.5-1.29 88.38-1.42 88.25-1.56 88.13-1.71 87.89-1.81L87.89-1.81Q87.55-1.95 87.33-1.86 87.11-1.76 86.67-2.15L86.67-2.15Q86.08-2.64 85.67-3.34 85.25-4.05 84.86-4.83 84.47-5.62 84.03-6.4 83.59-7.18 83.01-7.76L83.01-7.76 82.61-7.76Q81.74-7.76 81.39-7.03L81.39-7.03Q81.15-7.18 80.91-7.4 80.66-7.62 80.37-7.76L80.37-7.76Q79.25-7.42 78.02-7.18 76.8-6.93 75.58-6.93L75.58-6.93 74.9-6.93Q74.61-6.93 74.27-7.03L74.27-7.03Q73.78-6.84 73.39-6.57 73-6.3 72.51-6.3L72.51-6.3Q72.21-6.3 71.82-6.49L71.82-6.49Q71.53-6.49 71.56-6.25 71.58-6.01 71.24-6.01L71.24-6.01 70.8-6.01Q70.11-6.01 69.46-5.96 68.8-5.91 68.11-5.91L68.11-5.91Q67.19-5.91 66.21-6.15L66.21-6.15Q65.96-6.01 65.67-6.01L65.67-6.01Q65.48-5.91 65.38-5.69 65.28-5.47 65.18-5.3 65.09-5.13 64.91-5 64.74-4.88 64.45-4.93L64.45-4.93Q64.35-4.35 63.96-4 63.57-3.66 63.57-2.98L63.57-2.98Q63.03-2.69 62.69-2.25 62.35-1.81 62.01-1.32 61.67-0.83 61.3-0.39 60.94 0.05 60.4 0.29L60.4 0.29Q60.15 0.59 60.25 1.22L60.25 1.22Q59.71 1.66 58.93 2 58.15 2.34 57.47 2.34L57.47 2.34Q56.05 2.34 55.52 0.83L55.52 0.83Q55.52 0.34 55.59-0.22 55.66-0.78 55.81-1.29 55.95-1.81 56.25-2.22 56.54-2.64 57.08-2.83L57.08-2.83Q57.08-3.27 56.78-3.44 56.49-3.61 56.54-4.05L56.54-4.05Q57.86-4.69 58.84-5.71 59.81-6.74 60.62-7.89 61.42-9.03 62.25-10.21 63.08-11.38 64.11-12.3L64.11-12.3 64.11-13.33Q65.57-14.89 66.01-16.85L66.01-16.85Q66.55-16.94 66.72-17.33 66.89-17.72 66.89-18.26L66.89-18.26Q67.14-18.26 67.21-18.48 67.28-18.7 67.62-18.6L67.62-18.6Q68.06-19.78 68.6-20.75 69.14-21.73 69.68-22.73 70.21-23.73 70.63-24.8 71.04-25.88 71.24-27.2L71.24-27.2Q71.92-27.25 71.99-27.86 72.07-28.47 72.17-28.96L72.17-28.96Q72.9-29.64 73.26-30.57 73.63-31.49 73.92-32.5 74.22-33.5 74.58-34.5 74.95-35.5 75.63-36.28L75.63-36.28 75.63-36.43Q75.63-36.67 75.44-36.74 75.24-36.82 75.24-37.06L75.24-37.06Q75.29-37.11 75.29-37.16L75.29-37.16Q75.88-37.4 76.17-37.96 76.46-38.53 77.05-38.77L77.05-38.77Q78.07-37.94 78.85-37.77 79.64-37.6 80.91-37.5L80.91-37.5Q81.54-36.82 81.61-35.86 81.69-34.91 81.93-33.98L81.93-33.98Q82.32-32.42 82.79-30.93 83.25-29.44 83.49-27.88L83.49-27.88Q83.64-26.95 84.03-26.12 84.42-25.29 84.57-24.41L84.57-24.41Q84.67-23.73 84.57-22.88 84.47-22.02 84.76-21.39L84.76-21.39 85.1-20.61Q85.35-20.07 85.52-19.48 85.69-18.9 85.84-18.31L85.84-18.31Q86.23-16.85 86.55-15.16 86.86-13.48 87.55-12.11L87.55-12.11Q87.79-11.62 88.3-11.43 88.82-11.23 89.45-11.16 90.09-11.08 90.7-11.11 91.31-11.13 91.75-11.13L91.75-11.13 92.23-11.13Q92.53-11.13 92.82-11.04L92.82-11.04Q93.02-10.64 93.02-10.35L93.02-10.35Q93.02-9.77 92.62-9.42 92.23-9.08 92.23-8.64L92.23-8.64Q92.23-8.4 92.43-8.11L92.43-8.11Q92.23-8.15 91.84-8.15L91.84-8.15Q90.72-8.15 89.65-7.76L89.65-7.76Q90.04-6.93 90.7-6.37 91.35-5.81 92.09-5.32L92.09-5.32Q92.58-5.71 93.11-5.71L93.11-5.71Q93.7-5.71 94.21-5.44 94.72-5.18 95.31-5.18L95.31-5.18Q95.75-5.18 95.94-5.32L95.94-5.32Q96.34-4.88 96.58-4.42 96.82-3.96 97.21-3.56ZM81.93-11.38L81.93-11.38Q81.83-12.21 81.61-12.57 81.39-12.94 81.25-13.48L81.25-13.48Q81.05-14.16 80.98-14.94 80.91-15.72 80.76-16.46L80.76-16.46Q80.42-18.12 80-19.78 79.59-21.44 78.95-23L78.95-23Q79.15-23.29 79.15-23.54L79.15-23.54 79.15-23.68Q78.71-24.17 78.51-24.88 78.32-25.59 78.15-26.29 77.98-27 77.71-27.61 77.44-28.22 76.85-28.61L76.85-28.61Q76.71-28.32 76.71-27.93L76.71-27.93Q76.71-27.59 76.78-27.29 76.85-27 76.85-26.66L76.85-26.66Q76.36-26.42 76.14-25.9 75.93-25.39 75.44-25.1L75.44-25.1Q75.05-23.54 74.31-22.14 73.58-20.75 72.78-19.38 71.97-18.02 71.24-16.63 70.51-15.23 70.07-13.72L70.07-13.72Q69.43-13.28 69.21-12.6 68.99-11.91 68.99-11.23L68.99-11.23Q69.43-10.99 69.99-10.96 70.55-10.94 71.09-10.94 71.63-10.94 72.12-10.84 72.6-10.74 73-10.35L73-10.35Q73.63-10.55 74.39-10.62 75.14-10.69 75.63-11.04L75.63-11.04Q76.61-10.69 77.73-10.69L77.73-10.69Q78.32-10.69 78.88-10.79 79.44-10.89 79.98-11.04L79.98-11.04Q80.42-10.94 80.66-10.72 80.91-10.5 81.39-10.55L81.39-10.55Q81.64-10.74 81.69-10.96 81.74-11.18 81.93-11.38ZM128.95-32.08L128.95-32.08Q128.85-31.49 128.68-31.08 128.51-30.66 128.61-29.98L128.61-29.98Q128.12-29.93 127.85-29.66 127.58-29.39 127.41-29.05 127.24-28.71 127.07-28.34 126.9-27.98 126.66-27.69L126.66-27.69Q127.05-25.93 127.09-24.12 127.14-22.31 127.34-20.56L127.34-20.56Q127.58-18.31 128.1-16.14 128.61-13.96 128.61-11.72L128.61-11.72Q128.61-11.04 128.58-10.45 128.56-9.86 128.56-9.23L128.56-9.23Q128.56-8.84 128.58-8.42 128.61-8.01 128.61-7.62L128.61-7.62Q128.61-6.2 128.24-4.79 127.88-3.37 127.68-1.95L127.68-1.95Q127.09-1.42 126.68-0.78 126.26-0.15 125.83 0.39 125.39 0.93 124.8 1.34 124.21 1.76 123.33 1.9L123.33 1.9Q123.19 2.39 122.77 2.64 122.36 2.88 122.07 3.32L122.07 3.32 121.97 3.32Q120.75 3.32 119.87 2.98 118.99 2.64 118.23 2.2 117.48 1.76 116.69 1.27 115.91 0.78 114.89 0.49L114.89 0.49Q113.52-0.63 112.4-1.98 111.27-3.32 109.86-4.39L109.86-4.39Q109.52-5.37 108.95-6.01 108.39-6.64 107.86-7.47L107.86-7.47Q107.61-7.81 107.49-8.11 107.37-8.4 107.17-8.79L107.17-8.79Q107.03-9.18 106.71-9.33 106.39-9.47 106.15-9.67L106.15-9.67Q105.76-11.18 105.02-12.45 104.29-13.72 103.32-14.89L103.32-14.89Q103.02-14.36 102.85-13.75 102.68-13.13 102.53-12.52 102.39-11.91 102.17-11.3 101.95-10.69 101.61-10.21L101.61-10.21 101.61-10.06Q101.61-9.81 101.8-9.77 102-9.72 102-9.47L102-9.47Q102-9.42 101.97-9.38 101.95-9.33 101.95-9.28L101.95-9.28Q101.7-9.08 101.58-8.79 101.46-8.5 101.07-8.45L101.07-8.45Q101.12-8.2 101.12-7.96L101.12-7.96 101.12-7.52Q101.12-6.1 100.8-4.69 100.48-3.27 100.48-1.81L100.48-1.81 100.48-1.17Q100.48-0.83 100.53-0.54L100.53-0.54Q100.63-0.24 100.83 0.05 101.02 0.34 101.02 0.59L101.02 0.59Q101.02 0.93 100.73 1.22L100.73 1.22Q101.07 1.46 101.51 1.76 101.95 2.05 102.31 2.42 102.68 2.78 102.92 3.2 103.17 3.61 103.17 4.1L103.17 4.1Q103.17 4.93 102.63 5.27 102.09 5.62 101.34 5.81 100.58 6.01 99.78 6.18 98.97 6.35 98.43 6.79L98.43 6.79 98.29 6.79Q97.7 6.79 97.41 6.45 97.11 6.1 96.53 6.1L96.53 6.1Q95.6 4.59 95.26 2.71 94.92 0.83 94.92-0.88L94.92-0.88Q94.92-2.98 95.28-5.08 95.65-7.18 96.16-9.23 96.67-11.28 97.29-13.31 97.9-15.33 98.43-17.38L98.43-17.38 98.48-17.53Q98.48-17.77 98.36-17.87 98.24-17.97 98.24-18.16L98.24-18.16Q98.24-18.26 98.29-18.26L98.29-18.26Q98.43-18.75 98.6-19.19 98.77-19.63 98.87-20.17L98.87-20.17Q99.16-21.53 99.29-22.97 99.41-24.41 99.43-25.83 99.46-27.25 99.53-28.69 99.6-30.13 99.85-31.54L99.85-31.54Q100.24-31.93 100.58-32.37 100.92-32.81 101.46-33.15L101.46-33.15Q102.44-33.11 103.41-32.86 104.39-32.62 105.27-32.08L105.27-32.08Q105.85-29.98 106.07-27.88 106.29-25.78 106.83-23.68L106.83-23.68 106.83-23.54Q106.83-23.29 107.1-23.32 107.37-23.34 107.51-23.14L107.51-23.14Q107.42-23 107.39-22.8 107.37-22.61 107.37-22.41L107.37-22.41 107.37-21.58Q107.47-21.19 107.61-20.75 107.76-20.31 108.25-20.21L108.25-20.21Q108.49-18.65 108.98-17.33 109.47-16.02 110.1-14.79 110.74-13.57 111.47-12.38 112.2-11.18 112.98-9.86L112.98-9.86Q114.2-8.94 115.08-7.74 115.96-6.54 116.87-5.44 117.77-4.35 118.92-3.52 120.06-2.69 121.92-2.49L121.92-2.49Q122.16-2.69 122.26-3.03L122.26-3.03 122.5-3.71Q122.65-4.05 122.82-4.32 122.99-4.59 123.33-4.74L123.33-4.74Q123.43-6.1 123.55-7.52 123.68-8.94 124.16-10.21L124.16-10.21Q123.92-10.64 123.92-11.28L123.92-11.28Q123.92-11.77 123.99-12.21 124.07-12.65 124.07-13.09L124.07-13.09Q124.07-14.01 123.68-14.6L123.68-14.6Q123.68-14.94 123.73-15.31 123.77-15.67 124.02-16.02L124.02-16.02Q123.63-16.99 123.41-18.07 123.19-19.14 123.19-20.26L123.19-20.26Q123.19-20.9 123.33-21.58L123.33-21.58Q123.04-22.31 122.94-23.29L122.94-23.29 122.75-25.29Q122.65-26.32 122.46-27.2 122.26-28.08 121.72-28.61L121.72-28.61Q122.02-29.05 122.02-29.64L122.02-29.64Q122.02-30.62 121.72-31.49 121.43-32.37 121.43-33.35L121.43-33.35Q121.43-34.03 121.72-34.72L121.72-34.72Q122.8-34.67 123.85-34.5 124.9-34.33 125.92-34.33L125.92-34.33Q126.22-33.94 126.61-33.69 127-33.45 127.44-33.23 127.88-33.01 128.29-32.76 128.71-32.52 128.95-32.08ZM159.66-6.15L159.66-6.15Q159.66-5.32 159.25-4.71 158.83-4.1 158.93-3.22L158.93-3.22Q158.24-2.83 157.81-2.2 157.37-1.56 156.97-0.88L156.97-0.88Q153.75 1.22 150.07 2.51 146.38 3.81 142.47 3.81L142.47 3.81Q142.23 3.81 142.03 3.59 141.84 3.37 141.64 3.13 141.45 2.88 141.23 2.66 141.01 2.44 140.72 2.44L140.72 2.44Q140.37 2.44 140.18 2.59L140.18 2.59Q140.18 2.49 140.2 2.42 140.23 2.34 140.23 2.25L140.23 2.25Q140.23 1.66 140.08 1.05 139.93 0.44 139.93-0.15L139.93-0.15Q139.93-0.83 140.18-1.27L140.18-1.27 140.76-1.27Q141.25-1.27 141.72-1.34 142.18-1.42 142.72-1.42L142.72-1.42Q143.25-1.42 143.69-1.12L143.69-1.12Q146.38-1.22 148.8-2.12 151.21-3.03 153.7-3.91L153.7-3.91Q154.09-4.44 154.17-5.1 154.24-5.76 154.53-6.35L154.53-6.35Q153.26-7.42 151.97-8.03 150.68-8.64 148.97-8.45L148.97-8.45Q147.94-9.08 146.79-9.18 145.65-9.28 144.47-9.47L144.47-9.47Q144.18-9.52 143.86-9.59 143.55-9.67 143.21-9.67L143.21-9.67Q142.96-9.67 142.74-9.55 142.52-9.42 142.62-9.18L142.62-9.18Q142.38-9.57 141.96-9.64 141.55-9.72 141.25-10.01L141.25-10.01Q139.69-10.11 138.52-10.57 137.35-11.04 135.93-11.62L135.93-11.62Q135.54-11.77 135.17-11.84 134.81-11.91 134.47-12.11L134.47-12.11Q133.59-12.55 133.05-13.28 132.51-14.01 132.19-14.92 131.88-15.82 131.73-16.8 131.58-17.77 131.44-18.6L131.44-18.6Q131.88-19.38 132.24-20.21 132.61-21.04 132.85-21.97L132.85-21.97Q133.15-22.12 133.44-22.22 133.73-22.31 134.07-22.46L134.07-22.46Q134.03-22.56 134.03-22.71L134.03-22.71Q134.03-22.95 134.2-23.19 134.37-23.44 134.27-23.68L134.27-23.68Q135.34-24.66 136.35-25.71 137.35-26.76 138.08-28.03L138.08-28.03Q138.81-28.27 139.25-28.76 139.69-29.25 140.13-29.76 140.57-30.27 141.11-30.69 141.64-31.1 142.47-31.2L142.47-31.2Q142.67-31.54 143.01-31.76 143.35-31.98 143.69-32.18 144.04-32.37 144.33-32.62 144.62-32.86 144.77-33.3L144.77-33.3Q145.55-33.3 146.21-33.59 146.87-33.89 147.5-34.23 148.14-34.57 148.8-34.86 149.46-35.16 150.24-35.16L150.24-35.16Q150.43-35.16 150.63-35.13 150.82-35.11 151.07-35.06L151.07-35.06Q151.41-34.72 151.53-34.25 151.65-33.79 151.7-33.25 151.75-32.71 151.77-32.18 151.8-31.64 151.95-31.2L151.95-31.2Q151.51-30.37 150.99-29.54 150.48-28.71 149.65-28.27L149.65-28.27 149.55-28.27Q149.21-28.22 148.92-28.42 148.63-28.61 148.23-28.61L148.23-28.61Q147.99-28.61 147.84-28.47L147.84-28.47 147.6-28.22Q147.5-28.13 147.33-28.03 147.16-27.93 146.87-28.03L146.87-28.03Q146.18-27.78 146.33-27.2L146.33-27.2Q145.4-27.1 144.77-26.64 144.13-26.17 143.6-25.61 143.06-25.05 142.52-24.58 141.98-24.12 141.25-24.07L141.25-24.07Q140.42-22.61 139.23-21.48 138.03-20.36 137.25-18.95L137.25-18.95Q137.39-18.55 137.44-18.12 137.49-17.68 137.59-17.19L137.59-17.19Q138.03-16.6 138.64-16.16 139.25-15.72 139.84-15.28L139.84-15.28 139.98-15.28Q140.96-15.28 141.79-14.92 142.62-14.55 143.55-14.55L143.55-14.55Q144.04-14.55 144.38-14.75L144.38-14.75Q145.65-14.45 146.89-14.26 148.14-14.06 149.41-13.96L149.41-13.96Q150.04-13.87 150.7-13.87 151.36-13.87 151.95-13.72L151.95-13.72Q152.48-13.57 153.02-13.35 153.56-13.13 154.09-12.89L154.09-12.89Q155.22-12.4 156.22-11.82 157.22-11.23 158-10.42 158.78-9.62 159.22-8.57 159.66-7.52 159.66-6.15ZM193.01-22.8L193.01-22.8Q192.81-22.31 192.62-21.88 192.42-21.44 192.32-20.9L192.32-20.9Q191.98-20.65 191.57-20.53 191.15-20.41 190.71-20.29 190.27-20.17 189.91-20 189.54-19.82 189.35-19.48L189.35-19.48Q189.2-18.75 189.2-18.12L189.2-18.12Q189.2-17.29 189.49-16.7L189.49-16.7Q189.35-16.26 189.3-15.77 189.25-15.28 189.25-14.84L189.25-14.84Q189.25-13.23 189.64-11.65 190.03-10.06 190.08-8.45L190.08-8.45Q190.08-8.2 190.03-7.91 189.98-7.62 189.98-7.37L189.98-7.37Q189.98-6.35 190.76-6.01L190.76-6.01Q190.62-5.76 190.62-5.57L190.62-5.57Q190.62-5.18 190.71-4.88 190.81-4.59 190.76-4.25L190.76-4.25Q191.01-3.76 191.25-3.39 191.49-3.03 191.59-2.49L191.59-2.49Q191.25-1.81 190.76-1.25 190.27-0.68 190.08 0.15L190.08 0.15Q189.88 0.1 189.64 0.1L189.64 0.1Q189.3 0.1 189.1 0.24 188.91 0.39 188.78 0.61 188.66 0.83 188.52 1.05 188.37 1.27 188.12 1.37L188.12 1.37 187.98 1.37Q187.73 1.42 187.56 1.34 187.39 1.27 187.25 1.27L187.25 1.27Q187.15 1.27 186.86 1.37L186.86 1.37Q186.46 0.88 186.32 0.22 186.17-0.44 186.17-1.07L186.17-1.07Q186.17-1.76 186.37-2.29L186.37-2.29Q185.83-2.73 185.71-3.61 185.59-4.49 185.44-5.08L185.44-5.08Q185.05-6.88 184.54-8.59 184.02-10.3 183.93-12.11L183.93-12.11Q183.88-12.79 183.88-13.43L183.88-13.43 183.88-15.97Q183.88-16.6 183.93-17.19L183.93-17.19Q183.93-17.63 184-18.04 184.07-18.46 184.07-18.9L184.07-18.9Q184.07-19.48 183.68-20.02L183.68-20.02Q180.21-19.87 177.11-18.77 174.01-17.68 170.94-16.16L170.94-16.16Q170.74-15.04 170.69-13.96 170.64-12.89 170.64-11.77L170.64-11.77 170.64-9.62Q170.64-8.4 170.74-7.57L170.74-7.57Q170.99-6.15 172.18-5.4 173.38-4.64 174.6-4.25L174.6-4.25Q174.55-3.52 174.31-3 174.06-2.49 173.7-2.08 173.33-1.66 172.89-1.27 172.45-0.88 172.01-0.39L172.01-0.39Q171.62-0.63 171.23-0.73 170.84-0.83 170.4-0.85 169.96-0.88 169.52-0.93 169.08-0.98 168.64-1.12L168.64-1.12 167.57-2.59Q167.03-3.32 166.4-4.05L166.4-4.05 166.4-4.49Q166.4-5.81 165.91-7.03 165.42-8.25 165.18-9.52L165.18-9.52Q165.32-9.96 165.37-10.4 165.42-10.84 165.42-11.33L165.42-11.33Q165.42-12.3 165.35-13.23 165.27-14.16 165.37-15.09L165.37-15.09 165.13-15.09Q164.69-15.09 164.2-14.87 163.71-14.65 163.25-14.38 162.78-14.11 162.37-13.89 161.95-13.67 161.66-13.67L161.66-13.67Q161.51-13.67 161.37-13.72 161.22-13.77 161.03-13.77L161.03-13.77Q160.78-13.77 160.44-13.57 160.1-13.38 159.68-13.16 159.27-12.94 158.83-12.74 158.39-12.55 157.95-12.55L157.95-12.55Q157.27-12.55 156.58-13.13L156.58-13.13Q156.48-13.53 156.51-13.87 156.53-14.21 156.53-14.6L156.53-14.6Q156.53-14.99 156.39-15.43L156.39-15.43Q156.73-16.06 157.29-16.43 157.85-16.8 158.46-17.11 159.07-17.43 159.71-17.75 160.34-18.07 160.78-18.6L160.78-18.6 161.07-18.6Q161.76-18.6 162.32-18.9 162.88-19.19 163.61-19.14L163.61-19.14Q163.86-19.24 163.95-19.87L163.95-19.87 164.15-19.82Q165.22-19.82 166.05-20.56L166.05-20.56Q166.59-23.58 166.93-26.66 167.28-29.74 167.28-32.81L167.28-32.81Q167.28-33.11 167.08-33.4L167.08-33.4Q166.98-33.79 166.98-34.13L166.98-34.13 166.98-34.86Q166.98-35.4 167.03-35.99 167.08-36.57 167.28-37.16L167.28-37.16Q167.76-37.45 168.3-37.45L168.3-37.45Q168.94-37.45 169.55-37.28 170.16-37.11 170.74-37.01L170.74-37.01Q171.18-36.57 171.4-36.04 171.62-35.5 171.67-34.94 171.72-34.38 171.69-33.81 171.67-33.25 171.67-32.71L171.67-32.71Q171.67-31.64 171.91-30.62 172.16-29.59 172.16-28.61L172.16-28.61Q172.16-28.37 171.99-28.25 171.82-28.13 171.82-27.59L171.82-27.59Q171.82-27.05 171.91-26.46 172.01-25.88 172.01-25.29L172.01-25.29Q172.01-24.61 171.82-23.88 171.62-23.14 171.47-22.46L171.47-22.46Q174.4-22.71 177.48-23.19 180.56-23.68 183.34-24.76L183.34-24.76Q183.39-24.85 183.39-25.05L183.39-25.05Q183.39-25.34 183.34-25.63 183.29-25.93 183.29-26.27L183.29-26.27Q183.29-26.86 183.68-27.2L183.68-27.2Q183.44-28.56 183.34-29.93 183.24-31.3 183.24-32.67L183.24-32.67 183.24-35.45Q183.24-36.82 183.19-38.18L183.19-38.18Q183.58-38.43 184.02-38.43L184.02-38.43Q184.56-38.43 185.02-38.16 185.49-37.89 186.12-37.89L186.12-37.89Q186.56-37.89 186.86-38.04L186.86-38.04Q187.39-37.55 187.59-36.77 187.78-35.99 187.93-35.16 188.08-34.33 188.25-33.52 188.42-32.71 188.95-32.23L188.95-32.23 189-32.08Q189-31.88 188.81-31.79 188.61-31.69 188.61-31.4L188.61-31.4 188.61-31.2Q188.81-30.42 188.91-29.59 189-28.76 189.08-27.91 189.15-27.05 189.3-26.25 189.44-25.44 189.83-24.76L189.83-24.76Q190.08-24.8 190.47-24.8L190.47-24.8Q191.45-24.8 192.01-24.15 192.57-23.49 193.01-22.8ZM227.04-31.05L227.04-31.05 227.04-30.86Q226.7-30.76 226.7-30.37L226.7-30.37Q226.16-30.13 225.57-30 224.99-29.88 224.45-29.64L224.45-29.64Q223.91-29.69 223.35-29.71 222.79-29.74 222.25-29.74L222.25-29.74Q220.79-29.74 219.32-29.64 217.86-29.54 216.39-29.64L216.39-29.64Q215.71-29.25 214.9-29.03 214.1-28.81 213.37-28.81L213.37-28.81Q212.78-28.81 212.34-28.96L212.34-28.96Q211.17-28.37 209.78-27.98 208.39-27.59 206.97-27.22 205.55-26.86 204.26-26.39 202.97-25.93 201.99-25.1L201.99-25.1Q201.89-24.41 201.84-23.75 201.79-23.1 201.79-22.46L201.79-22.46Q201.79-21.78 201.87-21.19 201.94-20.61 202.18-20.02L202.18-20.02Q202.43-19.92 202.75-19.87 203.06-19.82 203.31-19.82L203.31-19.82Q203.55-19.82 203.8-19.9 204.04-19.97 204.14-20.21L204.14-20.21Q204.87-20.31 205.6-20.29 206.34-20.26 207.07-20.26L207.07-20.26Q207.8-20.26 208.51-20.31 209.22-20.36 209.9-20.56L209.9-20.56Q210.68-20.75 211.44-20.8 212.19-20.85 212.93-20.9 213.66-20.95 214.44-21.07 215.22-21.19 216.05-21.58L216.05-21.58Q216.69-21.34 217.35-21.34 218.01-21.34 218.64-21.24L218.64-21.24Q218.98-21 219.2-20.7 219.42-20.41 219.42-20.02L219.42-20.02Q219.42-19.34 218.93-18.65 218.44-17.97 218.15-17.38L218.15-17.38 217.61-17.38Q216.44-17.38 215.34-17.07 214.25-16.75 213.15-16.33 212.05-15.92 210.95-15.6 209.85-15.28 208.68-15.28L208.68-15.28Q208.48-15.28 208.46-15.06 208.43-14.84 208.34-14.75L208.34-14.75Q208.09-14.79 207.6-14.79L207.6-14.79Q206.48-14.79 205.46-14.55 204.43-14.31 203.36-14.31L203.36-14.31Q203.06-14.31 202.77-14.33 202.48-14.36 202.18-14.4L202.18-14.4Q201.94-14.01 201.55-13.89 201.16-13.77 200.82-13.48L200.82-13.48Q200.67-13.04 200.65-12.4 200.62-11.77 200.6-11.11 200.57-10.45 200.48-9.86 200.38-9.28 200.09-8.94L200.09-8.94Q200.13-8.69 200.48-8.76 200.82-8.84 200.82-8.45L200.82-8.45Q200.82-8.01 200.72-7.52 200.62-7.03 200.62-6.54L200.62-6.54Q200.62-5.62 200.84-4.52 201.06-3.42 201.53-2.49 201.99-1.56 202.77-0.95 203.55-0.34 204.72-0.34L204.72-0.34Q205.51-0.34 206.19-0.63 206.87-0.93 207.31-1.61L207.31-1.61 207.56-1.66Q207.75-1.66 207.92-1.61 208.09-1.56 208.29-1.56L208.29-1.56Q208.58-1.56 209.05-1.93 209.51-2.29 210.07-2.78 210.63-3.27 211.22-3.74 211.8-4.2 212.34-4.39L212.34-4.39Q212.68-5.08 213-5.76 213.32-6.45 213.95-6.84L213.95-6.84 213.95-8.25Q214.44-8.79 215-9.23 215.56-9.67 215.86-10.35L215.86-10.35Q216.1-10.25 216.32-10.21 216.54-10.16 216.78-10.16L216.78-10.16Q217.03-10.16 217.3-10.21 217.57-10.25 217.81-10.35L217.81-10.35Q218.2-9.81 218.42-9.16 218.64-8.5 218.98-7.91L218.98-7.91Q218.54-7.03 217.96-5.81 217.37-4.59 216.69-3.37 216-2.15 215.25-1.05 214.49 0.05 213.76 0.63L213.76 0.63Q213.61 0.78 213.12 0.98L213.12 0.98Q212.59 1.37 212.15 1.73 211.71 2.1 211.32 2.59L211.32 2.59Q209.9 3.03 208.61 3.76 207.31 4.49 206.04 5.18L206.04 5.18Q205.46 5.03 204.77 5.03L204.77 5.03Q204.19 5.03 203.6 5.1 203.01 5.18 202.33 5.18L202.33 5.18Q202.14 4.93 201.77 4.86 201.4 4.79 201.5 4.35L201.5 4.35Q199.84 4.25 198.82 3.44 197.79 2.64 197.08 1.46 196.37 0.29 195.93-1.07 195.5-2.44 195.01-3.71L195.01-3.71 195.01-3.86Q195.01-4.1 195.2-4.15 195.4-4.2 195.4-4.44L195.4-4.44Q195.4-4.54 195.35-4.59L195.35-4.59Q195.2-5.13 195.1-5.52 195.01-5.91 195.01-6.45L195.01-6.45Q195.01-7.23 195.1-7.98 195.2-8.74 195.2-9.52L195.2-9.52Q195.2-10.3 195.01-10.89L195.01-10.89Q195.2-11.13 195.32-11.55 195.45-11.96 195.5-12.4 195.54-12.84 195.57-13.28 195.59-13.72 195.69-14.06L195.69-14.06Q195.5-14.6 195.35-15.01 195.2-15.43 195.2-16.02L195.2-16.02 195.2-16.36Q195.69-17.19 196.03-18.07 196.37-18.95 196.76-19.87L196.76-19.87 196.76-20.02Q196.76-21.44 196.67-22.85 196.57-24.27 196.57-25.68L196.57-25.68 196.57-26.61Q196.57-27.1 196.62-27.54L196.62-27.54Q197.01-27.73 197.2-28.08 197.4-28.42 197.79-28.61L197.79-28.61 199.4-28.61 199.69-29.1Q199.84-29.35 199.89-29.64L199.89-29.64Q200.43-29.79 200.94-30.05 201.45-30.32 201.89-30.62L201.89-30.62Q202.58-31.01 203.14-31.32 203.7-31.64 204.26-31.86 204.82-32.08 205.46-32.23 206.09-32.37 206.92-32.47L206.92-32.47Q207.31-32.47 207.43-32.62 207.56-32.76 207.8-32.96L207.8-32.96Q208.39-32.86 208.97-32.79 209.56-32.71 210.14-32.71L210.14-32.71Q211.32-32.71 212.34-33.15L212.34-33.15Q213.81-33.15 215.25-33.2 216.69-33.25 218.15-33.25L218.15-33.25Q219.42-33.25 220.69-33.15 221.96-33.06 223.18-32.81L223.18-32.81Q223.62-32.96 224.16-32.96L224.16-32.96Q224.74-32.96 225.35-32.84 225.96-32.71 226.55-32.81L226.55-32.81Q226.6-32.28 226.82-31.91 227.04-31.54 227.04-31.05ZM255.6-31.05L255.6-31.05 255.6-30.86Q255.26-30.76 255.26-30.37L255.26-30.37Q254.72-30.13 254.14-30 253.55-29.88 253.01-29.64L253.01-29.64Q252.48-29.69 251.91-29.71 251.35-29.74 250.82-29.74L250.82-29.74Q249.35-29.74 247.89-29.64 246.42-29.54 244.96-29.64L244.96-29.64Q244.27-29.25 243.47-29.03 242.66-28.81 241.93-28.81L241.93-28.81Q241.34-28.81 240.9-28.96L240.9-28.96Q239.73-28.37 238.34-27.98 236.95-27.59 235.53-27.22 234.12-26.86 232.82-26.39 231.53-25.93 230.55-25.1L230.55-25.1Q230.45-24.41 230.4-23.75 230.36-23.1 230.36-22.46L230.36-22.46Q230.36-21.78 230.43-21.19 230.5-20.61 230.75-20.02L230.75-20.02Q230.99-19.92 231.31-19.87 231.63-19.82 231.87-19.82L231.87-19.82Q232.11-19.82 232.36-19.9 232.6-19.97 232.7-20.21L232.7-20.21Q233.43-20.31 234.16-20.29 234.9-20.26 235.63-20.26L235.63-20.26Q236.36-20.26 237.07-20.31 237.78-20.36 238.46-20.56L238.46-20.56Q239.24-20.75 240-20.8 240.76-20.85 241.49-20.9 242.22-20.95 243-21.07 243.78-21.19 244.61-21.58L244.61-21.58Q245.25-21.34 245.91-21.34 246.57-21.34 247.2-21.24L247.2-21.24Q247.54-21 247.76-20.7 247.98-20.41 247.98-20.02L247.98-20.02Q247.98-19.34 247.49-18.65 247.01-17.97 246.71-17.38L246.71-17.38 246.18-17.38Q245-17.38 243.91-17.07 242.81-16.75 241.71-16.33 240.61-15.92 239.51-15.6 238.41-15.28 237.24-15.28L237.24-15.28Q237.05-15.28 237.02-15.06 237-14.84 236.9-14.75L236.9-14.75Q236.65-14.79 236.17-14.79L236.17-14.79Q235.04-14.79 234.02-14.55 232.99-14.31 231.92-14.31L231.92-14.31Q231.63-14.31 231.33-14.33 231.04-14.36 230.75-14.4L230.75-14.4Q230.5-14.01 230.11-13.89 229.72-13.77 229.38-13.48L229.38-13.48Q229.23-13.04 229.21-12.4 229.18-11.77 229.16-11.11 229.14-10.45 229.04-9.86 228.94-9.28 228.65-8.94L228.65-8.94Q228.7-8.69 229.04-8.76 229.38-8.84 229.38-8.45L229.38-8.45Q229.38-8.01 229.28-7.52 229.18-7.03 229.18-6.54L229.18-6.54Q229.18-5.62 229.4-4.52 229.62-3.42 230.09-2.49 230.55-1.56 231.33-0.95 232.11-0.34 233.29-0.34L233.29-0.34Q234.07-0.34 234.75-0.63 235.43-0.93 235.87-1.61L235.87-1.61 236.12-1.66Q236.31-1.66 236.48-1.61 236.65-1.56 236.85-1.56L236.85-1.56Q237.14-1.56 237.61-1.93 238.07-2.29 238.63-2.78 239.19-3.27 239.78-3.74 240.37-4.2 240.9-4.39L240.9-4.39Q241.24-5.08 241.56-5.76 241.88-6.45 242.51-6.84L242.51-6.84 242.51-8.25Q243-8.79 243.56-9.23 244.13-9.67 244.42-10.35L244.42-10.35Q244.66-10.25 244.88-10.21 245.1-10.16 245.35-10.16L245.35-10.16Q245.59-10.16 245.86-10.21 246.13-10.25 246.37-10.35L246.37-10.35Q246.76-9.81 246.98-9.16 247.2-8.5 247.54-7.91L247.54-7.91Q247.1-7.03 246.52-5.81 245.93-4.59 245.25-3.37 244.57-2.15 243.81-1.05 243.05 0.05 242.32 0.63L242.32 0.63Q242.17 0.78 241.68 0.98L241.68 0.98Q241.15 1.37 240.71 1.73 240.27 2.1 239.88 2.59L239.88 2.59Q238.46 3.03 237.17 3.76 235.87 4.49 234.6 5.18L234.6 5.18Q234.02 5.03 233.33 5.03L233.33 5.03Q232.75 5.03 232.16 5.1 231.58 5.18 230.89 5.18L230.89 5.18Q230.7 4.93 230.33 4.86 229.97 4.79 230.06 4.35L230.06 4.35Q228.4 4.25 227.38 3.44 226.35 2.64 225.64 1.46 224.94 0.29 224.5-1.07 224.06-2.44 223.57-3.71L223.57-3.71 223.57-3.86Q223.57-4.1 223.76-4.15 223.96-4.2 223.96-4.44L223.96-4.44Q223.96-4.54 223.91-4.59L223.91-4.59Q223.76-5.13 223.67-5.52 223.57-5.91 223.57-6.45L223.57-6.45Q223.57-7.23 223.67-7.98 223.76-8.74 223.76-9.52L223.76-9.52Q223.76-10.3 223.57-10.89L223.57-10.89Q223.76-11.13 223.89-11.55 224.01-11.96 224.06-12.4 224.11-12.84 224.13-13.28 224.15-13.72 224.25-14.06L224.25-14.06Q224.06-14.6 223.91-15.01 223.76-15.43 223.76-16.02L223.76-16.02 223.76-16.36Q224.25-17.19 224.59-18.07 224.94-18.95 225.33-19.87L225.33-19.87 225.33-20.02Q225.33-21.44 225.23-22.85 225.13-24.27 225.13-25.68L225.13-25.68 225.13-26.61Q225.13-27.1 225.18-27.54L225.18-27.54Q225.57-27.73 225.77-28.08 225.96-28.42 226.35-28.61L226.35-28.61 227.96-28.61 228.26-29.1Q228.4-29.35 228.45-29.64L228.45-29.64Q228.99-29.79 229.5-30.05 230.01-30.32 230.45-30.62L230.45-30.62Q231.14-31.01 231.7-31.32 232.26-31.64 232.82-31.86 233.38-32.08 234.02-32.23 234.65-32.37 235.48-32.47L235.48-32.47Q235.87-32.47 236-32.62 236.12-32.76 236.36-32.96L236.36-32.96Q236.95-32.86 237.53-32.79 238.12-32.71 238.71-32.71L238.71-32.71Q239.88-32.71 240.9-33.15L240.9-33.15Q242.37-33.15 243.81-33.2 245.25-33.25 246.71-33.25L246.71-33.25Q247.98-33.25 249.25-33.15 250.52-33.06 251.74-32.81L251.74-32.81Q252.18-32.96 252.72-32.96L252.72-32.96Q253.31-32.96 253.92-32.84 254.53-32.71 255.11-32.81L255.11-32.81Q255.16-32.28 255.38-31.91 255.6-31.54 255.6-31.05ZM331.38-8.3L331.38-8.3Q331.38-7.67 331.03-7.15 330.69-6.64 330.84-5.96L330.84-5.96Q330.64-5.62 330.33-5.42 330.01-5.22 330.11-4.69L330.11-4.69Q329.08-4.15 328.23-3.34 327.37-2.54 326.4-1.81L326.4-1.81Q325.81-1.37 325.4-1.2 324.98-1.03 324.39-0.68L324.39-0.68 323.17 0.1Q322.34 0.54 321.49 0.98 320.63 1.42 319.95 2.1L319.95 2.1Q318.93 2.15 317.85 2.66 316.78 3.17 315.8 3.56L315.8 3.56Q315.41 3.71 315.02 3.78 314.63 3.86 314.24 4.05L314.24 4.05 313.46 4.39Q312.77 4.74 311.85 5.1 310.92 5.47 310.19 5.47L310.19 5.47Q309.75 5.66 309.45 6.15L309.45 6.15Q307.84 6.69 306.13 6.98 304.42 7.28 302.81 7.91L302.81 7.91Q302.27 8.15 301.71 8.57 301.15 8.98 300.52 8.94L300.52 8.94Q300.37 9.18 300.32 9.52 300.27 9.86 300.18 10.21L300.18 10.21 300.03 10.21Q299.83 10.21 299.86 10.01 299.88 9.81 299.69 9.81L299.69 9.81Q299.54 9.81 299.49 9.86L299.49 9.86Q298.86 10.01 298.3 10.11 297.73 10.21 297.05 10.21L297.05 10.21Q296.66 10.21 295.81 10.11 294.95 10.01 294.56 9.86L294.56 9.86Q294.27 9.72 294.07 9.33 293.88 8.94 293.71 8.5 293.53 8.06 293.41 7.59 293.29 7.13 293.19 6.84L293.19 6.84Q293.34 6.3 293.68 5.96 294.02 5.62 294.22 5.08L294.22 5.08Q294.66 5.03 295.1 4.93 295.54 4.83 295.98 4.88L295.98 4.88Q297.49 4.44 299.03 4.03 300.57 3.61 302.08 3.17 303.59 2.73 305.06 2.2 306.52 1.66 307.89 0.88L307.89 0.88 308.92 0.88Q309.79 0.39 310.87 0.05 311.94-0.29 312.63-1.07L312.63-1.07Q314.24-1.42 316-2 317.75-2.59 318.93-3.86L318.93-3.86Q319.66-3.96 320.19-4.22 320.73-4.49 321.22-4.79L321.22-4.79 322.2-5.42Q322.69-5.76 323.32-5.96L323.32-5.96Q323.71-6.35 324.05-6.79 324.39-7.23 324.88-7.52L324.88-7.52Q324.74-8.3 324.1-8.69 323.47-9.08 322.98-9.62L322.98-9.62 321.9-9.62Q320.63-10.4 319.19-10.82 317.75-11.23 316.34-11.72L316.34-11.72Q316.24-11.77 316.09-11.77L316.09-11.77Q315.75-11.77 315.68-11.52 315.61-11.28 315.26-11.33L315.26-11.33Q314.82-11.62 314.34-11.69 313.85-11.77 313.31-11.77L313.31-11.77Q312.63-11.77 311.97-11.69 311.31-11.62 310.62-11.62L310.62-11.62Q310.28-11.62 309.94-11.67 309.6-11.72 309.26-11.91L309.26-11.91 308.62-11.91Q307.6-11.91 306.6-11.84 305.6-11.77 304.62-11.77L304.62-11.77Q304.08-11.77 303.59-11.79 303.11-11.82 302.62-11.91L302.62-11.91Q301.59-11.43 300.42-11.23 299.25-11.04 298-10.94 296.76-10.84 295.54-10.77 294.32-10.69 293.19-10.5L293.19-10.5Q292.9-10.55 292.63-10.57 292.36-10.6 292.12-10.6L292.12-10.6Q291.87-10.6 291.61-10.57 291.34-10.55 291.09-10.5L291.09-10.5Q290.46-11.18 289.56-11.5 288.65-11.82 287.77-11.91L287.77-11.91Q287.09-12.74 286.77-13.6 286.45-14.45 286.36-15.53L286.36-15.53 286.55-15.53Q286.89-15.53 286.87-15.87 286.85-16.21 287.09-16.46L287.09-16.46Q287.33-16.75 287.75-16.87 288.16-16.99 288.55-17.14 288.94-17.29 289.31-17.5 289.68-17.72 289.87-18.21L289.87-18.21 290.51-18.21Q290.7-18.21 290.92-18.19 291.14-18.16 291.29-18.02L291.29-18.02Q291.48-18.21 291.78-18.36 292.07-18.51 292.34-18.65 292.61-18.8 292.8-18.99 293-19.19 293.05-19.58L293.05-19.58Q293.1-19.43 293.29-19.43L293.29-19.43Q293.49-19.43 293.66-19.53 293.83-19.63 294.07-19.58L294.07-19.58Q294.32-20.26 294.9-20.31 295.49-20.36 295.98-20.65L295.98-20.65Q296.32-20.85 296.61-21.12 296.9-21.39 297.25-21.63L297.25-21.63 300.18-23.88 304.67-27.29Q306.91-29 309.26-30.47L309.26-30.47Q309.36-30.76 309.55-30.91 309.75-31.05 309.94-31.23 310.14-31.4 310.26-31.59 310.38-31.79 310.33-32.18L310.33-32.18Q311.02-32.32 311.38-32.71 311.75-33.11 312.04-33.57 312.33-34.03 312.65-34.5 312.97-34.96 313.51-35.21L313.51-35.21Q313.46-35.35 313.46-35.64L313.46-35.64Q313.46-36.04 313.53-36.43 313.6-36.82 313.9-37.11L313.9-37.11Q313.46-38.13 312.38-38.6 311.31-39.06 310.33-39.4L310.33-39.4 310.19-39.4Q309.94-39.4 309.92-39.18 309.89-38.96 309.65-38.87L309.65-38.87Q308.87-39.06 307.89-39.06L307.89-39.06Q306.91-39.06 305.96-38.92 305.01-38.77 304.03-38.87L304.03-38.87Q303.89-38.67 303.72-38.48 303.54-38.28 303.3-38.13L303.3-38.13Q302.27-38.09 301.25-37.84L301.25-37.84 299.2-37.35 298.08-37.11Q297.83-37.01 297.73-36.77 297.64-36.52 297.59-36.23L297.59-36.23Q297.29-36.28 297.22-36.47 297.15-36.67 296.86-36.77L296.86-36.77Q295.73-36.08 294.44-35.64 293.14-35.21 292.12-34.28L292.12-34.28Q291.78-34.67 291.14-34.67L291.14-34.67Q290.61-34.67 289.97-34.33 289.34-33.98 289.19-33.45L289.19-33.45Q288.7-33.54 288.46-33.54L288.46-33.54Q287.92-33.54 287.55-33.25 287.19-32.96 286.85-32.59 286.5-32.23 286.11-31.88 285.72-31.54 285.14-31.49L285.14-31.49Q285.14-31.25 285.16-30.98 285.19-30.71 285.19-30.42L285.19-30.42Q285.19-28.22 284.94-26.05 284.7-23.88 284.7-21.68L284.7-21.68Q284.7-21.19 284.75-20.73 284.79-20.26 284.79-19.73L284.79-19.73Q284.79-19.58 284.57-19.09 284.36-18.6 284.26-18.36L284.26-18.36Q284.45-17.82 284.43-17.29 284.4-16.75 284.65-16.26L284.65-16.26Q284.21-15.87 284.21-15.19L284.21-15.19Q284.21-14.89 284.23-14.6 284.26-14.31 284.26-14.01L284.26-14.01 284.26-13.43Q284.11-12.45 284.06-11.45 284.01-10.45 284.01-9.47L284.01-9.47Q284.01-9.03 284.04-7.98 284.06-6.93 284.16-5.64 284.26-4.35 284.45-2.98 284.65-1.61 284.97-0.46 285.28 0.68 285.77 1.42 286.26 2.15 286.94 2.15L286.94 2.15Q287.09 2.15 287.31 2.1 287.53 2.05 287.53 1.86L287.53 1.86Q287.53 1.66 287.46 1.51 287.38 1.37 287.38 1.17L287.38 1.17 287.43 1.07Q287.82 1.27 288.29 1.32 288.75 1.37 289.24 1.42 289.73 1.46 290.17 1.59 290.61 1.71 290.95 2.1L290.95 2.1Q290.75 2.49 290.75 2.93L290.75 2.93Q290.75 3.52 291.04 4.03 291.34 4.54 291.44 5.08L291.44 5.08Q290.51 5.37 289.75 5.74 288.99 6.1 288.26 6.42 287.53 6.74 286.7 7.01 285.87 7.28 284.79 7.37L284.79 7.37Q284.11 6.93 283.62 6.59 283.13 6.25 282.3 6.15L282.3 6.15Q281.03 4.44 280.2 2.32 279.37 0.2 278.91-2.1 278.45-4.39 278.28-6.71 278.11-9.03 278.11-11.08L278.11-11.08Q278.11-13.33 278.28-15.55 278.45-17.77 278.74-20.02L278.74-20.02Q278.84-20.7 278.94-21.41 279.03-22.12 279.13-22.8L279.13-22.8Q279.23-23.05 279.3-23.36 279.37-23.68 279.37-23.93L279.37-23.93Q279.37-24.76 279.33-25.59 279.28-26.42 279.28-27.2L279.28-27.2Q279.28-28.42 279.42-29.69L279.42-29.69Q279.47-29.93 279.59-30.32 279.72-30.71 279.72-31.01L279.72-31.01Q279.72-31.4 279.52-31.54 279.33-31.69 279.18-32.03L279.18-32.03Q279.33-32.52 279.42-32.98 279.52-33.45 279.52-33.94L279.52-33.94Q279.52-34.86 279.18-35.55L279.18-35.55Q279.42-36.82 279.91-38.04 280.4-39.26 281.62-39.89L281.62-39.89Q282.6-39.84 283.6-39.7 284.6-39.55 285.33-38.87L285.33-38.87Q285.67-39.06 286.11-39.11L286.11-39.11 287.04-39.21Q287.53-39.26 287.92-39.38 288.31-39.5 288.6-39.89L288.6-39.89Q289.58-40.09 290.7-40.45 291.83-40.82 292.66-41.31L292.66-41.31 293.73-41.31Q294.07-41.55 294.51-41.65L294.51-41.65 295.44-41.89Q295.93-42.04 296.34-42.19 296.76-42.33 297-42.68L297-42.68 297.2-42.68Q298.32-42.68 299.39-43.16 300.47-43.65 301.49-44.04L301.49-44.04Q301.74-44.14 302.25-44.38 302.76-44.63 302.96-44.63L302.96-44.63Q303.64-44.73 304.33-44.75 305.01-44.78 305.69-44.92L305.69-44.92Q307.26-45.17 308.79-45.48 310.33-45.8 311.89-45.8L311.89-45.8Q312.43-45.8 312.9-45.78 313.36-45.75 313.9-45.7L313.9-45.7Q313.94-45.51 314.14-45.39 314.34-45.26 314.51-45.17 314.68-45.07 314.82-44.9 314.97-44.73 314.92-44.43L314.92-44.43Q315.02-44.34 315.12-44.34L315.12-44.34Q315.26-44.34 315.39-44.48 315.51-44.63 315.75-44.63L315.75-44.63 316-44.63Q316.63-43.95 317.24-43.33 317.85-42.72 318.78-42.33L318.78-42.33Q319.17-40.87 319.71-39.45 320.24-38.04 320.24-36.43L320.24-36.43Q320.24-35.45 319.95-34.52L319.95-34.52Q319.27-34.18 318.97-33.45 318.68-32.71 318.44-32.03L318.44-32.03Q317.07-31.35 316.14-30.22 315.21-29.1 314.24-27.98L314.24-27.98 313.46-27.98Q313.26-27.98 313.16-27.83L313.16-27.83 312.72-27.34Q312.28-26.95 311.77-26.56 311.26-26.17 311.02-25.54L311.02-25.54Q309.5-24.71 308.11-23.68 306.72-22.66 305.45-21.53L305.45-21.53Q304.91-21.09 304.37-20.53 303.84-19.97 303.3-19.58L303.3-19.58Q303.01-19.34 302.64-19.17 302.27-18.99 301.98-18.75L301.98-18.75Q301.35-18.26 300.81-17.75 300.27-17.24 299.69-16.8L299.69-16.8Q301.88-16.89 304.13-16.92 306.38-16.94 308.57-16.99L308.57-16.99Q309.7-16.99 310.77-17.07 311.85-17.14 312.97-17.14L312.97-17.14Q313.16-17.14 313.31-17.07 313.46-16.99 313.65-16.94L313.65-16.94Q314.48-16.8 315.12-16.6L315.12-16.6Q317.46-16.16 319.8-15.82 322.15-15.48 324.39-14.7L324.39-14.7Q325.03-14.45 325.35-14.16 325.66-13.87 326.49-14.01L326.49-14.01Q327.18-13.33 327.98-12.94 328.79-12.55 329.62-12.26L329.62-12.26Q330.25-11.28 330.81-10.4 331.38-9.52 331.38-8.3ZM344.56-6.69L344.56-6.69Q344.31-6.3 343.97-5.98 343.63-5.66 343.34-5.32L343.34-5.32Q343-5.18 342.58-5.18 342.17-5.18 341.8-5.2 341.43-5.22 341.12-5.2 340.8-5.18 340.6-4.98L340.6-4.98Q340.21-5.08 340.02-5.35 339.82-5.62 339.33-5.66L339.33-5.66Q339.14-5.71 338.94-5.66L338.94-5.66Q338.21-6.49 337.6-7.42 336.99-8.35 336.45-9.18L336.45-9.18Q336.4-10.99 336.16-12.84L336.16-12.84Q336.11-13.28 336.01-13.72 335.92-14.16 335.87-14.55L335.87-14.55Q335.87-15.04 335.94-15.5 336.01-15.97 336.06-16.36L336.06-16.36Q336.26-17.77 336.5-19.14 336.75-20.51 336.94-21.92L336.94-21.92Q337.14-23.19 337.14-24.58 337.14-25.98 336.7-27.2L336.7-27.2 336.65-27.44Q336.75-27.83 336.87-28.1 336.99-28.37 337.04-28.71L337.04-28.71Q337.14-29.25 336.79-29.49L336.79-29.49Q336.94-29.88 337.28-30 337.62-30.13 337.67-30.57L337.67-30.57Q337.72-30.76 337.67-30.96L337.67-30.96Q338.06-31.1 338.48-31.23 338.89-31.35 339.28-31.25L339.28-31.25Q339.92-31.15 340.41-30.83 340.9-30.52 341.33-30.13L341.33-30.13Q342.12-27.78 341.97-25.17 341.82-22.56 341.48-19.92 341.14-17.29 341.04-14.77 340.94-12.26 341.82-10.11L341.82-10.11 341.92-10.06Q342.17-10.01 342.31-10.23 342.46-10.45 342.7-10.4L342.7-10.4Q342.9-10.3 342.95-10.3L342.95-10.3Q343.14-9.33 343.58-8.45 344.02-7.57 344.56-6.69ZM391.09-31.4L391.23-31.4Q391.04-30.76 390.6-30.22L390.6-30.22 389.77-29.2Q389.38-28.71 389.11-28.15 388.84-27.59 388.94-26.86L388.94-26.86Q388.84-26.86 388.7-26.88 388.55-26.9 388.45-26.9L388.45-26.9Q387.67-26.9 387.26-26.54 386.84-26.17 386.16-25.93L386.16-25.93Q386.06-26.22 385.91-26.49 385.77-26.76 385.47-26.86L385.47-26.86Q384.3-26.61 383.13-26.49 381.96-26.37 380.79-26.17L380.79-26.17Q380.25-26.07 379.71-25.9 379.17-25.73 378.59-25.59L378.59-25.59Q378.3-25.49 377.95-25.51 377.61-25.54 377.27-25.49L377.27-25.49Q376.1-25.44 374.73-25.32 373.36-25.2 372.29-24.56L372.29-24.56Q371.8-24.66 371.26-24.71 370.73-24.76 370.19-24.76L370.19-24.76Q369.02-24.76 367.63-24.54 366.23-24.32 365.16-23.68L365.16-23.68Q364.92-23.78 364.65-23.83 364.38-23.88 364.04-23.88L364.04-23.88Q363.94-23.88 363.89-23.85 363.84-23.83 363.74-23.83L363.74-23.83Q363.7-23.39 363.87-22.97 364.04-22.56 364.48-22.31L364.48-22.31Q364.28-21.78 364.28-21.14L364.28-21.14Q364.28-20.31 364.4-19.48 364.53-18.65 364.53-17.82L364.53-17.82Q364.53-16.89 364.28-16.36L364.28-16.36Q364.77-14.89 364.77-13.23L364.77-13.23Q364.77-12.65 364.7-12.08 364.62-11.52 364.62-10.89L364.62-10.89Q364.62-10.35 365.01-10.03 365.4-9.72 365.4-9.18L365.4-9.18Q365.4-8.98 365.31-8.79L365.31-8.79Q365.99-8.94 366.63-9.2 367.26-9.47 367.94-9.47L367.94-9.47Q368.33-9.47 368.7-9.33 369.07-9.18 369.36-8.94L369.36-8.94Q369.31-8.69 369.29-8.4 369.26-8.11 369.26-7.81L369.26-7.81Q369.26-7.28 369.29-6.81 369.31-6.35 369.36-5.81L369.36-5.81Q368.97-5.13 368.46-4.59 367.94-4.05 367.75-3.22L367.75-3.22Q367.02-3.22 366.45-2.91 365.89-2.59 365.4-2.22 364.92-1.86 364.43-1.54 363.94-1.22 363.35-1.22L363.35-1.22Q362.62-1.22 362.33-1.44 362.04-1.66 361.89-1.9 361.74-2.15 361.62-2.34 361.5-2.54 361.11-2.49L361.11-2.49Q361.01-3.13 360.72-3.69 360.42-4.25 360.11-4.79 359.79-5.32 359.47-5.88 359.15-6.45 359.01-7.03L359.01-7.03Q358.72-8.3 358.76-9.67 358.81-11.04 358.32-12.3L358.32-12.3Q358.42-12.99 358.47-13.7 358.52-14.4 358.52-15.09L358.52-15.09Q358.52-16.46 358.45-17.8 358.37-19.14 358.32-20.56L358.32-20.56Q357.98-21 357.91-21.56 357.84-22.12 357.79-22.66L357.79-22.66Q357.64-22.8 357.47-22.95 357.3-23.1 357.25-23.34L357.25-23.34Q356.86-23.44 356.66-23.44L356.66-23.44Q355.98-23.44 355.52-23.12 355.05-22.8 354.66-22.8L354.66-22.8Q354.27-22.8 353.93-22.9 353.59-23 353.25-23L353.25-23Q352.95-23 352.93-22.88 352.9-22.75 352.71-22.66L352.71-22.66Q352.56-22.56 352.03-22.46 351.49-22.36 350.83-22.29 350.17-22.22 349.56-22.17 348.95-22.12 348.75-22.12L348.75-22.12Q347.97-22.12 347.56-22.44 347.14-22.75 346.56-23.14L346.56-23.14Q346.65-23.44 346.65-23.54L346.65-23.54Q346.65-24.02 346.36-24.34 346.07-24.66 346.07-24.9L346.07-24.9Q346.07-25.44 346.48-25.73 346.9-26.03 346.95-26.66L346.95-26.66Q348.07-27.15 349.24-27.39 350.41-27.64 351.64-27.78 352.86-27.93 354.05-28.13 355.25-28.32 356.42-28.76L356.42-28.76Q356.76-28.71 357.08-28.69 357.4-28.66 357.74-28.66L357.74-28.66Q359.2-28.66 360.64-28.98 362.08-29.3 363.6-29.3L363.6-29.3Q363.99-29.3 364.38-29.25 364.77-29.2 365.16-29.1L365.16-29.1Q367.11-29.39 369.04-29.74 370.97-30.08 373.02-30.32L373.02-30.32Q374-30.42 374.95-30.49 375.9-30.57 376.88-30.71L376.88-30.71Q377.22-30.76 377.39-30.88 377.56-31.01 377.56-31.4L377.56-31.4Q378-31.2 378.54-31.2L378.54-31.2Q379.37-31.2 380.15-31.49 380.93-31.79 381.76-31.79L381.76-31.79Q381.96-31.79 382.1-31.76 382.25-31.74 382.4-31.74L382.4-31.74Q382.74-31.74 382.76-32.06 382.79-32.37 383.23-32.47L383.23-32.47Q383.57-32.57 384.2-32.62 384.84-32.67 385.55-32.74 386.25-32.81 386.86-32.93 387.48-33.06 387.77-33.3L387.77-33.3 388.11-33.84Q388.99-33.79 389.4-33.08 389.82-32.37 389.87-31.54L389.87-31.54Q390.06-31.35 390.43-31.37 390.8-31.4 391.09-31.4L391.09-31.4ZM415.3-31.05L415.3-31.05 415.3-30.86Q414.96-30.76 414.96-30.37L414.96-30.37Q414.43-30.13 413.84-30 413.25-29.88 412.72-29.64L412.72-29.64Q412.18-29.69 411.62-29.71 411.06-29.74 410.52-29.74L410.52-29.74Q409.05-29.74 407.59-29.64 406.12-29.54 404.66-29.64L404.66-29.64Q403.98-29.25 403.17-29.03 402.37-28.81 401.63-28.81L401.63-28.81Q401.05-28.81 400.61-28.96L400.61-28.96Q399.44-28.37 398.04-27.98 396.65-27.59 395.24-27.22 393.82-26.86 392.53-26.39 391.23-25.93 390.26-25.1L390.26-25.1Q390.16-24.41 390.11-23.75 390.06-23.1 390.06-22.46L390.06-22.46Q390.06-21.78 390.13-21.19 390.21-20.61 390.45-20.02L390.45-20.02Q390.7-19.92 391.01-19.87 391.33-19.82 391.57-19.82L391.57-19.82Q391.82-19.82 392.06-19.9 392.31-19.97 392.4-20.21L392.4-20.21Q393.14-20.31 393.87-20.29 394.6-20.26 395.33-20.26L395.33-20.26Q396.07-20.26 396.77-20.31 397.48-20.36 398.17-20.56L398.17-20.56Q398.95-20.75 399.7-20.8 400.46-20.85 401.19-20.9 401.93-20.95 402.71-21.07 403.49-21.19 404.32-21.58L404.32-21.58Q404.95-21.34 405.61-21.34 406.27-21.34 406.91-21.24L406.91-21.24Q407.25-21 407.47-20.7 407.69-20.41 407.69-20.02L407.69-20.02Q407.69-19.34 407.2-18.65 406.71-17.97 406.42-17.38L406.42-17.38 405.88-17.38Q404.71-17.38 403.61-17.07 402.51-16.75 401.41-16.33 400.31-15.92 399.22-15.6 398.12-15.28 396.95-15.28L396.95-15.28Q396.75-15.28 396.73-15.06 396.7-14.84 396.6-14.75L396.6-14.75Q396.36-14.79 395.87-14.79L395.87-14.79Q394.75-14.79 393.72-14.55 392.7-14.31 391.62-14.31L391.62-14.31Q391.33-14.31 391.04-14.33 390.74-14.36 390.45-14.4L390.45-14.4Q390.21-14.01 389.82-13.89 389.43-13.77 389.08-13.48L389.08-13.48Q388.94-13.04 388.91-12.4 388.89-11.77 388.86-11.11 388.84-10.45 388.74-9.86 388.64-9.28 388.35-8.94L388.35-8.94Q388.4-8.69 388.74-8.76 389.08-8.84 389.08-8.45L389.08-8.45Q389.08-8.01 388.99-7.52 388.89-7.03 388.89-6.54L388.89-6.54Q388.89-5.62 389.11-4.52 389.33-3.42 389.79-2.49 390.26-1.56 391.04-0.95 391.82-0.34 392.99-0.34L392.99-0.34Q393.77-0.34 394.45-0.63 395.14-0.93 395.58-1.61L395.58-1.61 395.82-1.66Q396.02-1.66 396.19-1.61 396.36-1.56 396.55-1.56L396.55-1.56Q396.85-1.56 397.31-1.93 397.78-2.29 398.34-2.78 398.9-3.27 399.48-3.74 400.07-4.2 400.61-4.39L400.61-4.39Q400.95-5.08 401.27-5.76 401.58-6.45 402.22-6.84L402.22-6.84 402.22-8.25Q402.71-8.79 403.27-9.23 403.83-9.67 404.12-10.35L404.12-10.35Q404.37-10.25 404.59-10.21 404.81-10.16 405.05-10.16L405.05-10.16Q405.29-10.16 405.56-10.21 405.83-10.25 406.08-10.35L406.08-10.35Q406.47-9.81 406.69-9.16 406.91-8.5 407.25-7.91L407.25-7.91Q406.81-7.03 406.22-5.81 405.64-4.59 404.95-3.37 404.27-2.15 403.51-1.05 402.76 0.05 402.02 0.63L402.02 0.63Q401.88 0.78 401.39 0.98L401.39 0.98Q400.85 1.37 400.41 1.73 399.97 2.1 399.58 2.59L399.58 2.59Q398.17 3.03 396.87 3.76 395.58 4.49 394.31 5.18L394.31 5.18Q393.72 5.03 393.04 5.03L393.04 5.03Q392.45 5.03 391.87 5.1 391.28 5.18 390.6 5.18L390.6 5.18Q390.4 4.93 390.04 4.86 389.67 4.79 389.77 4.35L389.77 4.35Q388.11 4.25 387.08 3.44 386.06 2.64 385.35 1.46 384.64 0.29 384.2-1.07 383.76-2.44 383.27-3.71L383.27-3.71 383.27-3.86Q383.27-4.1 383.47-4.15 383.66-4.2 383.66-4.44L383.66-4.44Q383.66-4.54 383.62-4.59L383.62-4.59Q383.47-5.13 383.37-5.52 383.27-5.91 383.27-6.45L383.27-6.45Q383.27-7.23 383.37-7.98 383.47-8.74 383.47-9.52L383.47-9.52Q383.47-10.3 383.27-10.89L383.27-10.89Q383.47-11.13 383.59-11.55 383.71-11.96 383.76-12.4 383.81-12.84 383.83-13.28 383.86-13.72 383.96-14.06L383.96-14.06Q383.76-14.6 383.62-15.01 383.47-15.43 383.47-16.02L383.47-16.02 383.47-16.36Q383.96-17.19 384.3-18.07 384.64-18.95 385.03-19.87L385.03-19.87 385.03-20.02Q385.03-21.44 384.93-22.85 384.84-24.27 384.84-25.68L384.84-25.68 384.84-26.61Q384.84-27.1 384.88-27.54L384.88-27.54Q385.28-27.73 385.47-28.08 385.67-28.42 386.06-28.61L386.06-28.61 387.67-28.61 387.96-29.1Q388.11-29.35 388.16-29.64L388.16-29.64Q388.69-29.79 389.21-30.05 389.72-30.32 390.16-30.62L390.16-30.62Q390.84-31.01 391.4-31.32 391.96-31.64 392.53-31.86 393.09-32.08 393.72-32.23 394.36-32.37 395.19-32.47L395.19-32.47Q395.58-32.47 395.7-32.62 395.82-32.76 396.07-32.96L396.07-32.96Q396.65-32.86 397.24-32.79 397.82-32.71 398.41-32.71L398.41-32.71Q399.58-32.71 400.61-33.15L400.61-33.15Q402.07-33.15 403.51-33.2 404.95-33.25 406.42-33.25L406.42-33.25Q407.69-33.25 408.96-33.15 410.23-33.06 411.45-32.81L411.45-32.81Q411.89-32.96 412.42-32.96L412.42-32.96Q413.01-32.96 413.62-32.84 414.23-32.71 414.82-32.81L414.82-32.81Q414.87-32.28 415.08-31.91 415.3-31.54 415.3-31.05ZM438.79-6.15L438.79-6.15Q438.79-5.32 438.37-4.71 437.96-4.1 438.06-3.22L438.06-3.22Q437.37-2.83 436.93-2.2 436.49-1.56 436.1-0.88L436.1-0.88Q432.88 1.22 429.19 2.51 425.51 3.81 421.6 3.81L421.6 3.81Q421.36 3.81 421.16 3.59 420.97 3.37 420.77 3.13 420.58 2.88 420.36 2.66 420.14 2.44 419.84 2.44L419.84 2.44Q419.5 2.44 419.31 2.59L419.31 2.59Q419.31 2.49 419.33 2.42 419.35 2.34 419.35 2.25L419.35 2.25Q419.35 1.66 419.21 1.05 419.06 0.44 419.06-0.15L419.06-0.15Q419.06-0.83 419.31-1.27L419.31-1.27 419.89-1.27Q420.38-1.27 420.84-1.34 421.31-1.42 421.85-1.42L421.85-1.42Q422.38-1.42 422.82-1.12L422.82-1.12Q425.51-1.22 427.92-2.12 430.34-3.03 432.83-3.91L432.83-3.91Q433.22-4.44 433.3-5.1 433.37-5.76 433.66-6.35L433.66-6.35Q432.39-7.42 431.1-8.03 429.8-8.64 428.1-8.45L428.1-8.45Q427.07-9.08 425.92-9.18 424.77-9.28 423.6-9.47L423.6-9.47Q423.31-9.52 422.99-9.59 422.68-9.67 422.33-9.67L422.33-9.67Q422.09-9.67 421.87-9.55 421.65-9.42 421.75-9.18L421.75-9.18Q421.5-9.57 421.09-9.64 420.67-9.72 420.38-10.01L420.38-10.01Q418.82-10.11 417.65-10.57 416.47-11.04 415.06-11.62L415.06-11.62Q414.67-11.77 414.3-11.84 413.93-11.91 413.59-12.11L413.59-12.11Q412.71-12.55 412.18-13.28 411.64-14.01 411.32-14.92 411.01-15.82 410.86-16.8 410.71-17.77 410.57-18.6L410.57-18.6Q411.01-19.38 411.37-20.21 411.74-21.04 411.98-21.97L411.98-21.97Q412.27-22.12 412.57-22.22 412.86-22.31 413.2-22.46L413.2-22.46Q413.15-22.56 413.15-22.71L413.15-22.71Q413.15-22.95 413.32-23.19 413.5-23.44 413.4-23.68L413.4-23.68Q414.47-24.66 415.47-25.71 416.47-26.76 417.21-28.03L417.21-28.03Q417.94-28.27 418.38-28.76 418.82-29.25 419.26-29.76 419.7-30.27 420.23-30.69 420.77-31.1 421.6-31.2L421.6-31.2Q421.8-31.54 422.14-31.76 422.48-31.98 422.82-32.18 423.16-32.37 423.46-32.62 423.75-32.86 423.9-33.3L423.9-33.3Q424.68-33.3 425.34-33.59 426-33.89 426.63-34.23 427.26-34.57 427.92-34.86 428.58-35.16 429.36-35.16L429.36-35.16Q429.56-35.16 429.76-35.13 429.95-35.11 430.19-35.06L430.19-35.06Q430.54-34.72 430.66-34.25 430.78-33.79 430.83-33.25 430.88-32.71 430.9-32.18 430.93-31.64 431.07-31.2L431.07-31.2Q430.63-30.37 430.12-29.54 429.61-28.71 428.78-28.27L428.78-28.27 428.68-28.27Q428.34-28.22 428.05-28.42 427.75-28.61 427.36-28.61L427.36-28.61Q427.12-28.61 426.97-28.47L426.97-28.47 426.73-28.22Q426.63-28.13 426.46-28.03 426.29-27.93 426-28.03L426-28.03Q425.31-27.78 425.46-27.2L425.46-27.2Q424.53-27.1 423.9-26.64 423.26-26.17 422.72-25.61 422.19-25.05 421.65-24.58 421.11-24.12 420.38-24.07L420.38-24.07Q419.55-22.61 418.35-21.48 417.16-20.36 416.38-18.95L416.38-18.95Q416.52-18.55 416.57-18.12 416.62-17.68 416.72-17.19L416.72-17.19Q417.16-16.6 417.77-16.16 418.38-15.72 418.96-15.28L418.96-15.28 419.11-15.28Q420.09-15.28 420.92-14.92 421.75-14.55 422.68-14.55L422.68-14.55Q423.16-14.55 423.51-14.75L423.51-14.75Q424.77-14.45 426.02-14.26 427.26-14.06 428.53-13.96L428.53-13.96Q429.17-13.87 429.83-13.87 430.49-13.87 431.07-13.72L431.07-13.72Q431.61-13.57 432.15-13.35 432.68-13.13 433.22-12.89L433.22-12.89Q434.35-12.4 435.35-11.82 436.35-11.23 437.13-10.42 437.91-9.62 438.35-8.57 438.79-7.52 438.79-6.15Z" opacity="1" transform="matrix(1,0,0,1,0,0)" fill="#6e7a73" class="undefined-text-0" data-fill-palette-color="primary" id="text-0"></path></svg></g></svg></g><g transform="matrix(1,0,0,1,98.88,63.1131140246978)"><svg viewBox="0 0 197.76 16.046145383104125" height="16.046145383104125" width="197.76"><g transform="matrix(1,0,0,1,0,0)"><svg width="197.76" viewBox="2 -38.43000030517578 497.010009765625 40.33000183105469" height="16.046145383104125" data-palette-color="#648372"><path d="M2-1.27L2-1.27 2.25-35.64Q2.78-37.45 6.45-37.45L6.45-37.45Q9.81-37.45 12.65-36.55 15.48-35.64 17.41-33.52 19.34-31.4 19.34-28.42L19.34-28.42Q19.34-26.07 18.19-23.88 17.04-21.68 15.38-21.04L15.38-21.04Q18.51-20.61 20.41-17.29 22.31-13.96 22.31-9.42L22.31-9.42Q22.31-6.35 19.87-4.08 17.43-1.81 14.18-0.81 10.94 0.2 7.62 0.2L7.62 0.2Q3.56 0.2 2-1.27ZM6.01-18.36L6.01-18.36Q6.01-14.99 5.91-4.83L5.91-4.83Q7.37-3.17 9.67-3.17L9.67-3.17Q12.7-3.17 15.53-5.69 18.36-8.2 18.36-11.08L18.36-11.08Q18.36-14.65 15.97-16.65 13.57-18.65 9.81-18.65L9.81-18.65Q7.32-18.65 6.01-18.36ZM5.91-21.97L5.91-21.97 8.94-22.02Q12.06-22.02 13.75-23.85 15.43-25.68 15.43-28.22L15.43-28.22Q15.43-30.81 13.72-32.69 12.01-34.57 8.98-34.57L8.98-34.57Q7.62-34.57 5.76-33.98L5.76-33.98Q5.86-31.01 5.88-26.61 5.91-22.22 5.91-21.97ZM27.34-25.1L27.34-25.1 29.59-24.61Q29.98-20.61 30.27-12.04 30.56-3.47 30.66-1.42L30.66-1.42Q30.22 0.1 28.95 0.1L28.95 0.1Q28.07 0.1 27.27-0.61 26.46-1.32 26.27-2.34L26.27-2.34Q26.36-4.35 26.66-12.77 26.95-21.19 27.34-25.1ZM28.02-33.84L28.02-33.84Q29.34-33.84 30.22-32.69 31.1-31.54 31.1-30.08L31.1-30.08Q31.1-29 30.59-28.34 30.08-27.69 29.2-27.69L29.2-27.69Q27.83-27.69 27.05-28.81 26.27-29.93 26.27-31.45L26.27-31.45Q26.27-32.52 26.73-33.18 27.19-33.84 28.02-33.84ZM48.43-23.63L48.43-23.63 48.97-21.44Q47.65-21.34 44.92-20.92 42.18-20.51 40.82-20.41L40.82-20.41Q41.06-18.7 41.11-15.92 41.16-13.13 41.23-11.11 41.3-9.08 41.67-7.06 42.04-5.03 43.18-3.96 44.33-2.88 46.28-2.88L46.28-2.88Q47.75-2.88 49.95-3.56L49.95-3.56Q50.87-1.76 51.31-0.93L51.31-0.93Q47.46 0.44 43.5 0.44L43.5 0.44Q42.04 0.44 40.96-0.44 39.89-1.32 39.3-2.64 38.72-3.96 38.35-5.98 37.98-8.01 37.89-9.81 37.79-11.62 37.79-13.96L37.79-13.96Q37.79-15.23 37.81-17.48 37.84-19.73 37.84-20.56L37.84-20.56Q37.35-20.51 35.54-20.48 33.74-20.46 33.44-20.46L33.44-20.46Q33.1-23.73 33.1-23.83L33.1-23.83Q33.44-23.73 34.22-23.73L34.22-23.73Q34.66-23.73 35.64-23.8 36.62-23.88 37.1-23.88L37.1-23.88Q37.3-23.88 37.62-23.85 37.93-23.83 38.03-23.83L38.03-23.83Q38.23-29.2 38.47-32.57L38.47-32.57 40.67-32.03Q40.72-30.86 40.74-29.52 40.77-28.17 40.79-26.54 40.82-24.9 40.82-24.02L40.82-24.02Q42.08-23.93 44.62-23.83 47.16-23.73 48.43-23.63ZM70.79-4.74L70.79-4.74 71.28-2.59Q69.13-1.81 64.91-0.85 60.69 0.1 58.64 0.1L58.64 0.1Q56.54 0.1 54.97-1.29 53.41-2.69 52.63-4.86 51.85-7.03 51.48-9.16 51.12-11.28 51.12-13.33L51.12-13.33Q51.12-25.54 62.15-25.54L62.15-25.54Q64.79-25.54 66.79-23.85 68.79-22.17 68.79-19.48L68.79-19.48Q68.79-18.02 67.99-16.89 67.18-15.77 66.03-15.11 64.89-14.45 63.1-13.92 61.32-13.38 59.95-13.13 58.59-12.89 56.68-12.6 54.78-12.3 54.05-12.16L54.05-12.16Q54.09-10.74 54.22-9.67 54.34-8.59 54.7-7.35 55.07-6.1 55.68-5.3 56.29-4.49 57.37-3.96 58.44-3.42 59.9-3.42L59.9-3.42Q61.66-3.42 64.2-3.74 66.74-4.05 68.72-4.39 70.7-4.74 70.79-4.74ZM54.24-15.19L54.24-15.19Q60.88-17.09 65.13-19.19L65.13-19.19Q64.79-20.8 64.2-21.53 63.62-22.27 62.44-22.27L62.44-22.27Q59.47-22.27 57.05-20.21 54.63-18.16 54.24-15.19ZM88.27-23.54L88.27-23.54 87.78-21.58Q83.05-23.54 80.41-23.54L80.41-23.54Q78.07-23.54 77.11-22.83 76.16-22.12 76.16-19.82L76.16-19.82Q76.16-17.97 77.5-16.75 78.85-15.53 80.75-14.82 82.66-14.11 84.58-13.31 86.51-12.5 87.86-10.94 89.2-9.38 89.2-7.08L89.2-7.08Q89.2-3.96 86.9-1.61 84.61 0.73 80.95 0.78L80.95 0.78Q78.26 0.78 75.92-0.34 73.57-1.46 72.21-3.17L72.21-3.17 73.62-4.64Q74.21-4.39 75.36-3.86 76.5-3.32 76.99-3.15 77.48-2.98 78.43-2.78 79.38-2.59 80.46-2.59L80.46-2.59Q82.75-2.59 84.22-3.61 85.68-4.64 85.68-6.49L85.68-6.49Q85.68-7.71 85-8.57 84.32-9.42 83.19-9.96 82.07-10.5 80.73-10.99 79.38-11.47 78.04-12.08 76.7-12.7 75.58-13.55 74.45-14.4 73.77-15.87 73.09-17.33 73.09-19.34L73.09-19.34Q73.09-22.27 74.67-24.24 76.26-26.22 79.14-26.22L79.14-26.22Q80.26-26.22 81.68-25.88 83.1-25.54 83.93-25.24 84.76-24.95 86.39-24.29 88.03-23.63 88.27-23.54ZM105.5-2.78L105.5-2.78 106.19-5.52Q110.43-3.22 114.54-3.22L114.54-3.22Q117.47-3.22 119.54-4.42 121.62-5.62 121.62-8.3L121.62-8.3Q121.62-10.69 119.86-12.67 118.1-14.65 115.61-16.16 113.12-17.68 110.63-19.26 108.14-20.85 106.38-23.17 104.62-25.49 104.62-28.32L104.62-28.32Q104.62-31.79 107.11-34.64 109.6-37.5 113.12-37.5L113.12-37.5Q115.81-37.5 119.1-36.43 122.4-35.35 124.64-34.28L124.64-34.28 124.06-32.32Q118.49-34.23 114.68-34.23L114.68-34.23Q112.34-34.23 110.68-32.71 109.02-31.2 109.02-28.81L109.02-28.81Q109.02-27 109.95-25.54 110.87-24.07 112.36-23 113.85-21.92 115.68-20.9 117.51-19.87 119.32-18.7 121.13-17.53 122.62-16.16 124.11-14.79 125.03-12.72 125.96-10.64 125.96-8.06L125.96-8.06Q125.96-4.39 123.62-2.08 121.27 0.24 117.51 0.24L117.51 0.24Q114.29 0.24 110.65-0.66 107.02-1.56 105.5-2.78ZM128.45-10.4L128.45-10.4Q128.45-12.35 128.86-14.75 129.28-17.14 130.11-19.78 130.94-22.41 132.6-24.17 134.26-25.93 136.46-25.93L136.46-25.93Q141.14-25.93 143.98-21.7 146.81-17.48 146.81-12.3L146.81-12.3Q146.81-10.11 146.34-7.93 145.88-5.76 144.9-3.66 143.93-1.56 142.1-0.17 140.27 1.22 137.82 1.42L137.82 1.42Q133.33 0.83 130.89-2.42 128.45-5.66 128.45-10.4ZM136.75-23.39L136.75-23.39Q135.04-23.19 133.87-20.26 132.7-17.33 132.36-14.58 132.01-11.82 132.01-9.72L132.01-9.72Q132.01-6.98 133.7-4.66 135.38-2.34 137.48-2.34L137.48-2.34Q139-2.34 140.22-3.52 141.44-4.69 142.15-6.42 142.85-8.15 143.22-9.91 143.59-11.67 143.59-13.04L143.59-13.04Q143.59-17.04 141.78-20.02 139.97-23 136.75-23.39ZM185.43-10.35L180.69-11.23 180.15-13.43Q181.13-13.57 184.74-13.89 188.36-14.21 189.28-14.4L189.28-14.4 189.28 1.12 185.48 1.9Q185.43 1.42 185.43-0.42 185.43-2.25 185.38-2.78L185.38-2.78Q185.38-2.69 185.04-2.22 184.69-1.76 183.96-1.07 183.23-0.39 182.25 0.24 181.28 0.88 179.76 1.32 178.25 1.76 176.59 1.76L176.59 1.76Q164.72 1.76 164.72-16.7L164.72-16.7Q164.72-19.87 165.21-22.88 165.7-25.88 166.87-28.91 168.04-31.93 170.41-33.79 172.78-35.64 176.05-35.64L176.05-35.64Q178.88-35.64 181.91-34.67 184.94-33.69 187.09-32.23L187.09-32.23 185.13-29.98Q181.33-32.81 177.61-32.81L177.61-32.81Q175.17-32.81 173.42-31.64 171.66-30.47 170.75-28.81 169.85-27.15 169.34-24.61 168.83-22.07 168.7-20.21 168.58-18.36 168.58-15.87L168.58-15.87Q168.58-9.91 170.78-6.13 172.98-2.34 176.49-2.34L176.49-2.34Q178-2.34 179.45-2.83 180.89-3.32 181.91-4 182.94-4.69 183.77-5.42 184.6-6.15 185.01-6.64 185.43-7.13 185.43-7.23L185.43-7.23 185.43-10.35ZM193.24-10.4L193.24-10.4Q193.24-12.35 193.65-14.75 194.07-17.14 194.9-19.78 195.73-22.41 197.39-24.17 199.05-25.93 201.24-25.93L201.24-25.93Q205.93-25.93 208.76-21.7 211.6-17.48 211.6-12.3L211.6-12.3Q211.6-10.11 211.13-7.93 210.67-5.76 209.69-3.66 208.72-1.56 206.88-0.17 205.05 1.22 202.61 1.42L202.61 1.42Q198.12 0.83 195.68-2.42 193.24-5.66 193.24-10.4ZM201.54-23.39L201.54-23.39Q199.83-23.19 198.66-20.26 197.48-17.33 197.14-14.58 196.8-11.82 196.8-9.72L196.8-9.72Q196.8-6.98 198.49-4.66 200.17-2.34 202.27-2.34L202.27-2.34Q203.78-2.34 205-3.52 206.23-4.69 206.93-6.42 207.64-8.15 208.01-9.91 208.37-11.67 208.37-13.04L208.37-13.04Q208.37-17.04 206.57-20.02 204.76-23 201.54-23.39ZM215.55-10.4L215.55-10.4Q215.55-12.35 215.96-14.75 216.38-17.14 217.21-19.78 218.04-22.41 219.7-24.17 221.36-25.93 223.56-25.93L223.56-25.93Q228.24-25.93 231.08-21.7 233.91-17.48 233.91-12.3L233.91-12.3Q233.91-10.11 233.44-7.93 232.98-5.76 232-3.66 231.03-1.56 229.2-0.17 227.37 1.22 224.92 1.42L224.92 1.42Q220.43 0.83 217.99-2.42 215.55-5.66 215.55-10.4ZM223.85-23.39L223.85-23.39Q222.14-23.19 220.97-20.26 219.8-17.33 219.45-14.58 219.11-11.82 219.11-9.72L219.11-9.72Q219.11-6.98 220.8-4.66 222.48-2.34 224.58-2.34L224.58-2.34Q226.1-2.34 227.32-3.52 228.54-4.69 229.24-6.42 229.95-8.15 230.32-9.91 230.69-11.67 230.69-13.04L230.69-13.04Q230.69-17.04 228.88-20.02 227.07-23 223.85-23.39ZM256.07-37.3L255.44 1.27 252.75 0.73Q252.75-0.24 252.7-0.73L252.7-0.73Q250.12 0.93 247.24 0.93L247.24 0.93Q242.79 0.93 240.33-2.88 237.86-6.69 237.86-11.52L237.86-11.52Q237.86-14.01 238.23-16.21 238.59-18.41 239.5-20.73 240.4-23.05 242.33-24.41 244.26-25.78 246.99-25.78L246.99-25.78Q249.68-25.78 252.02-24.46L252.02-24.46Q252.41-29.64 252.41-34.91L252.41-34.91Q252.41-37.3 252.36-38.43L252.36-38.43Q254.71-37.99 256.07-37.3L256.07-37.3ZM252.31-3.96L252.31-3.96 252.17-19.68Q251.58-20.9 250.34-21.61 249.09-22.31 247.68-22.31L247.68-22.31Q245.77-22.31 244.43-21.09 243.09-19.87 242.52-17.85 241.96-15.82 241.74-14.06 241.52-12.3 241.52-10.35L241.52-10.35Q241.52-2.05 247.09-2.05L247.09-2.05Q248.94-2.05 250.48-2.56 252.02-3.08 252.31-3.96ZM290.93-35.3L290.93-35.3 293.62-34.47Q293.18-33.64 291.44-29.81 289.71-25.98 287.66-21.92 285.61-17.87 283.66-14.79L283.66-14.79Q283.85-12.4 283.9-7.37 283.95-2.34 284.1-0.15L284.1-0.15Q283.66-0.05 281.85-0.05L281.85-0.05Q280.14-0.05 279.8-0.15L279.8-0.15Q279.95-2.25 280.02-7.35 280.09-12.45 280.29-14.79L280.29-14.79Q277.85-18.85 274.84-26.12 271.84-33.4 271.01-35.11L271.01-35.11 274.28-35.35 282-18.75Q282.88-20.31 286.02-26.51 289.17-32.71 290.93-35.3ZM291.03-10.4L291.03-10.4Q291.03-12.35 291.44-14.75 291.86-17.14 292.69-19.78 293.52-22.41 295.18-24.17 296.84-25.93 299.03-25.93L299.03-25.93Q303.72-25.93 306.55-21.7 309.39-17.48 309.39-12.3L309.39-12.3Q309.39-10.11 308.92-7.93 308.46-5.76 307.48-3.66 306.51-1.56 304.67-0.17 302.84 1.22 300.4 1.42L300.4 1.42Q295.91 0.83 293.47-2.42 291.03-5.66 291.03-10.4ZM299.33-23.39L299.33-23.39Q297.62-23.19 296.45-20.26 295.28-17.33 294.93-14.58 294.59-11.82 294.59-9.72L294.59-9.72Q294.59-6.98 296.28-4.66 297.96-2.34 300.06-2.34L300.06-2.34Q301.57-2.34 302.79-3.52 304.02-4.69 304.72-6.42 305.43-8.15 305.8-9.91 306.16-11.67 306.16-13.04L306.16-13.04Q306.16-17.04 304.36-20.02 302.55-23 299.33-23.39ZM327.84-24.51L327.84-24.51 330.18-24.07 330.18-23.58Q330.18-20.26 330.6-12.35 331.01-4.44 331.36-0.15L331.36-0.15Q330.38 0.24 329.5 0.24L329.5 0.24Q328.72 0.24 327.74 0L327.74 0 327.35-1.27Q324.23 0.49 321.4 0.49L321.4 0.49Q319.3 0.49 317.76-0.49 316.22-1.46 315.39-2.91 314.56-4.35 314.07-6.47 313.58-8.59 313.46-10.33 313.34-12.06 313.34-14.21L313.34-14.21Q313.34-20.46 314.12-25.68L314.12-25.68 316.32-25.2Q316.66-23.58 316.66-21.68L316.66-21.68Q316.66-20.61 316.54-17.97 316.42-15.33 316.42-13.96L316.42-13.96Q316.42-11.57 316.63-9.84 316.85-8.11 317.46-6.47 318.08-4.83 319.34-3.96 320.61-3.08 322.52-3.08L322.52-3.08Q324.67-3.08 327.16-4.05L327.16-4.05Q327.25-5.86 327.35-13.31 327.45-20.75 327.84-24.51ZM338.73-33.2L337.6-25.73 335.41-26.27 334.28-34.13Q334.38-35.11 334.87-35.6 335.36-36.08 335.99-36.08L335.99-36.08Q336.97-36.08 337.82-35.25 338.68-34.42 338.73-33.2L338.73-33.2ZM341.7-2.34L342.78-33.5 345.02-33.01 346.1-1.42Q345.66 0.1 344.39 0.1L344.39 0.1Q343.51 0.1 342.7-0.61 341.9-1.32 341.7-2.34L341.7-2.34ZM350.1-2.34L351.17-33.5 353.42-33.01 354.49-1.42Q354.05 0.1 352.78 0.1L352.78 0.1Q351.91 0.1 351.1-0.61 350.29-1.32 350.1-2.34L350.1-2.34ZM371.82-2.78L371.82-2.78 372.51-5.52Q376.75-3.22 380.86-3.22L380.86-3.22Q383.79-3.22 385.86-4.42 387.94-5.62 387.94-8.3L387.94-8.3Q387.94-10.69 386.18-12.67 384.42-14.65 381.93-16.16 379.44-17.68 376.95-19.26 374.46-20.85 372.7-23.17 370.94-25.49 370.94-28.32L370.94-28.32Q370.94-31.79 373.43-34.64 375.92-37.5 379.44-37.5L379.44-37.5Q382.13-37.5 385.42-36.43 388.72-35.35 390.96-34.28L390.96-34.28 390.38-32.32Q384.81-34.23 381-34.23L381-34.23Q378.66-34.23 377-32.71 375.34-31.2 375.34-28.81L375.34-28.81Q375.34-27 376.27-25.54 377.19-24.07 378.68-23 380.17-21.92 382-20.9 383.83-19.87 385.64-18.7 387.45-17.53 388.94-16.16 390.43-14.79 391.35-12.72 392.28-10.64 392.28-8.06L392.28-8.06Q392.28-4.39 389.94-2.08 387.59 0.24 383.83 0.24L383.83 0.24Q380.61 0.24 376.97-0.66 373.34-1.56 371.82-2.78ZM411.22-24.22L411.22-24.22 410.98-22.12Q408.93-22.41 407.46-22.41L407.46-22.41Q404.1-22.41 401.9-20.39 399.7-18.36 398.9-15.6 398.09-12.84 398.09-9.47L398.09-9.47Q398.09-7.91 398.28-6.69 398.48-5.47 398.99-4.3 399.51-3.13 400.6-2.47 401.7-1.81 403.31-1.81L403.31-1.81Q405.46-1.81 408.78-2.64L408.78-2.64Q409.81-3.03 410.39-3.03L410.39-3.03Q411.57-3.03 411.81-0.29L411.81-0.29Q407.51 1.07 403.85 1.07L403.85 1.07Q398.53 1.07 396.65-1.54 394.77-4.15 394.77-10.01L394.77-10.01Q394.77-13.43 395.23-15.99 395.7-18.55 396.87-20.78 398.04-23 400.26-24.17 402.48-25.34 405.71-25.34L405.71-25.34Q409.32-25.34 411.22-24.22ZM430.41-18.6L430.41-18.6 428.26-18.75Q427.24-21.48 424.8-21.48L424.8-21.48Q423.72-21.48 422.53-21 421.33-20.51 420.55-20 419.77-19.48 418.5-18.51L418.5-18.51Q418.5-17.82 418.47-14.06 418.45-10.3 418.52-5.71 418.59-1.12 418.69-0.78L418.69-0.78Q418.25 0.68 416.98 0.68L416.98 0.68Q416.1 0.68 415.3-0.02 414.49-0.73 414.3-1.76L414.3-1.76Q415.23-17.43 415.96-25.44L415.96-25.44 418.16-24.95 418.3-21.68Q421.72-24.51 424.16-24.51L424.16-24.51Q426.85-24.51 428.68-23.29 430.51-22.07 430.51-19.73L430.51-19.73Q430.51-18.99 430.41-18.6ZM452.14-4.74L452.14-4.74 452.63-2.59Q450.48-1.81 446.25-0.85 442.03 0.1 439.98 0.1L439.98 0.1Q437.88 0.1 436.32-1.29 434.75-2.69 433.97-4.86 433.19-7.03 432.83-9.16 432.46-11.28 432.46-13.33L432.46-13.33Q432.46-25.54 443.49-25.54L443.49-25.54Q446.13-25.54 448.13-23.85 450.14-22.17 450.14-19.48L450.14-19.48Q450.14-18.02 449.33-16.89 448.52-15.77 447.38-15.11 446.23-14.45 444.45-13.92 442.66-13.38 441.3-13.13 439.93-12.89 438.03-12.6 436.12-12.3 435.39-12.16L435.39-12.16Q435.44-10.74 435.56-9.67 435.68-8.59 436.05-7.35 436.41-6.1 437.02-5.3 437.64-4.49 438.71-3.96 439.78-3.42 441.25-3.42L441.25-3.42Q443.01-3.42 445.55-3.74 448.08-4.05 450.06-4.39 452.04-4.74 452.14-4.74ZM435.58-15.19L435.58-15.19Q442.23-17.09 446.47-19.19L446.47-19.19Q446.13-20.8 445.55-21.53 444.96-22.27 443.79-22.27L443.79-22.27Q440.81-22.27 438.39-20.21 435.98-18.16 435.58-15.19ZM456.33-21.09L456.33-21.09 455.36-23.58Q456.63-24.85 458.58-25.61 460.53-26.37 462.44-26.37L462.44-26.37Q470.69-26.37 470.69-12.11L470.69-12.11Q470.69-10.16 470.47-6.35 470.25-2.54 470.25-0.63L470.25-0.63Q469.86 0.88 468.74 0.88L468.74 0.88Q467.86 0.88 467.13 0 466.39-0.88 466.39-1.95L466.39-1.95Q466.39-2.29 466.44-2.44L466.44-2.44Q463.41 0.49 460 0.49L460 0.49Q457.41 0.49 455.48-1.39 453.55-3.27 453.55-5.96L453.55-5.96Q453.55-10.5 457.09-14.16 460.63-17.82 465.12-17.82L465.12-17.82Q465.32-17.82 465.51-17.8 465.71-17.77 465.98-17.72 466.25-17.68 466.39-17.68L466.39-17.68Q466-23.39 461.85-23.39L461.85-23.39Q459.41-23.39 456.33-21.09ZM466.54-5.81L466.54-5.81Q466.64-9.23 466.64-10.99L466.64-10.99Q466.64-12.45 466.54-15.09L466.54-15.09 466.15-15.09Q462.68-15.04 459.83-12.5 456.97-9.96 456.97-6.35L456.97-6.35Q456.97-4.79 457.92-3.86 458.87-2.93 460.24-2.93L460.24-2.93Q462.39-2.93 466.54-5.81ZM487.97-19.34L487.97-19.34Q488.17-16.6 488.27-12.87 488.36-9.13 488.44-5.32 488.51-1.51 488.56-0.15L488.56-0.15Q487.48 0.15 486.56 0.15L486.56 0.15Q485.82 0.15 485.19-0.1L485.19-0.1Q485.04-2 484.99-4.44 484.94-6.88 484.94-8.76 484.94-10.64 484.87-12.7 484.8-14.75 484.6-16.21 484.41-17.68 484.02-18.92 483.63-20.17 482.92-20.85 482.21-21.53 481.19-21.58L481.19-21.58Q480.16-21.58 479.52-21.14 478.89-20.7 478.16-19.53L478.16-19.53 478.16-0.2Q477.43 0.2 476.4 0.2L476.4 0.2Q475.62 0.2 474.64-0.05L474.64-0.05Q474.79-3.13 474.84-12.16 474.89-21.19 475.23-25.54L475.23-25.54 477.43-25.05 477.57-22.56Q479.04-24.85 481.28-24.85L481.28-24.85Q484.6-24.85 486.9-21.92L486.9-21.92Q488.31-24.85 491.49-24.85L491.49-24.85Q492.76-24.85 493.69-24.56L493.69-24.56Q499.01-23.05 499.01-10.94L499.01-10.94Q499.01-9.18 498.89-6.23 498.76-3.27 498.76-2.25L498.76-2.25Q498.76-0.88 498.91 0L498.91 0Q496.37 0.68 495.83 0.68L495.83 0.68Q495.35 0.68 495.15 0.59L495.15 0.59Q494.95-0.05 494.95-1.76L494.95-1.76Q494.95-2.83 495.1-6.18 495.25-9.52 495.25-11.43L495.25-11.43Q495.25-21.58 491.24-21.68L491.24-21.68Q490.32-21.63 489.63-21.12 488.95-20.61 487.97-19.34Z" opacity="1" transform="matrix(1,0,0,1,0,0)" fill="#648372" class="undefined-text-1" data-fill-palette-color="secondary" id="text-1"></path></svg></g></svg></g></svg></g></svg></g><g transform="matrix(1,0,0,1,101.11014643943778,0)"><svg viewBox="0 0 193.2997071211244 193.2997071211244" height="193.2997071211244" width="193.2997071211244"><g><svg></svg></g><g id="icon-0"><svg viewBox="0 0 193.2997071211244 193.2997071211244" height="193.2997071211244" width="193.2997071211244"><g><path d="M0 96.65c0-53.378 43.272-96.65 96.65-96.65 53.378 0 96.65 43.272 96.65 96.65 0 53.378-43.272 96.65-96.65 96.65-53.378 0-96.65-43.272-96.65-96.65zM96.65 188.695c50.835 0 92.045-41.21 92.045-92.045 0-50.835-41.21-92.045-92.045-92.045-50.835 0-92.045 41.21-92.045 92.045 0 50.835 41.21 92.045 92.045 92.045z" data-fill-palette-color="accent" fill="#3d9970" stroke="transparent"></path></g><g transform="matrix(1,0,0,1,49.09936915875807,40.20596715743105)"><svg viewBox="0 0 95.10096880360827 112.88777280626232" height="112.88777280626232" width="95.10096880360827"><g><svg xmlns="http://www.w3.org/2000/svg" xmlns:xlink="http://www.w3.org/1999/xlink" version="1.1" x="0" y="0" viewBox="9.571003913879395 1.9973877668380737 80.92898559570312 96.06519317626953" style="enable-background:new 0 0 100 100;" xml:space="preserve" height="112.88777280626232" width="95.10096880360827" class="icon-a-0" data-fill-palette-color="accent" id="a-0"><g fill="#3d9970" data-fill-palette-color="accent"><path d="M29.8 48c0-0.9-0.1-2-0.3-3.2-2.2-1.4-2.7-4.9-2.4-6.3 0 0 0 0 0-0.1l0 0c2.1-1.5 5.1-0.4 6.4 0.2-0.4-1-0.2-2.6-0.2-2.6 0.2 1.5 0.5 2.4 0.8 2.9 0.1 0 0.1 0.1 0.1 0.1 0.1-1.1 1.4-3.7 4.1-4.4 1.9-0.5 3.9 0.2 4.9 0.6 0-1 0.1-2.2 0.6-2.7 0.9-0.9 8.8 2.3 9.6-1.3 0.7-3.6-1.4-12.3-1.4-14.1 0-1.8 2.7-1.8 4.3-2.3 1.6-0.5 1.1-4.3 1.1-4.3s-1.1 1.4-1.1 2.5-0.9 0.3-0.9 0.3 1.5-2.2 0.8-4c-0.7-1.8-0.7-1.1-0.7-1.1s0.3 1.9 0 2.4c-0.3 0.5-0.7 1.5-0.7 1.5S55 11 54.8 10C54.6 9 54 7.9 54 7.9s-0.2 1.4-0.1 2c0.1 0.6-0.2 2.4-0.5 2.4-0.4 0-0.4-2-1-2.1-0.6-0.1-1.8 1.3-1.8 1.3s0.9 0.2 1.4 0c0.5-0.2-0.2 1.3-0.2 1.3s-1.3 1.9-1.8 1.5c-0.5-0.4-0.9-1.4-1.5-1.2 0 0 0 2.3 0.6 2.5 0.6 0.3 0.7 1.4 0.7 1.4s-0.8 10-0.6 11.3c0 0-5.3-1.9-7.4-2-2.6-0.1-5.3 1.3-6.6 1.3-0.3 0-0.7-0.1-0.9-0.4l0 0C34 26.8 34 26.3 34.3 26c0.5-0.5 0.9-1 1.2-1.6 0.5-1 1.6-1.6 2.8-1.6 5 0.1 6.8-1.6 7.9-2.4 1.2-0.8 2.5-1.4 2.5-1.4l0.4-1.4c0 0-0.6-1.2-4.1 1.4-1.1 0.8-6.6 2-6.6 2 3.3-0.7 5.3-3.1 6-4.5 0.6-1.4 3.6-2.2 3.6-2.2s-2.7 0.1-4.8 1.4c-2.1 1.3-3 1.7-3 1.7 1.6-1.2 1.6-2.5 3.4-3 1.8-0.5 5.8-2.8 6-4 0.3-1.2 2.8-3.4 2.8-3.4S50 7.5 49.3 8.8c-0.7 1.3-4.2 1.8-4.2 1.8 1.7-0.9 2.3-1.3 4.1-3.3 1.7-2.1 5.8-2.5 5.8-2.5s-5-1.6-7.5 1.1c-2.5 2.7-4.8 1.1-6.8 1.1-2 0-3 0.8-3 0.8 0-1.4 1.4-1.4 3.7-2.4C43.7 4.2 44.7 2 44.7 2s-2.2 2.1-4.9 2.1c-2.7 0-5.8 0-6.2 3-0.5 3-3.2 4-3.2 4 2.4-1.5 2.6-5.6 2.7-6.8C33.2 3.1 36.9 2 36.9 2s-4.9-0.2-5.7 2.9c-0.8 3.1-6.7 4.1-8.3 7-1.6 3 0.5 4 0.5 4 0.1 0.2 0.1 0.4 0.2 0.6 0.2 0.6 0.2 1.4 0 2-0.4 1.3 0.1 2.6 0.5 4.1 0.8 2.8 2.7 4.8 5.3 5.1l0 0c0 0 0.3 0.2 0.2 0.9 0 0-3.1 2.9-5.8 5.4-1 0.9-1.1 2.6-0.9 3.7 0.1 0.4 0.2 0.8 0.2 1.1l2.2 9.5c0 0 0.8 2.1-0.2 3-1.1 0.9-8.7 0.7-11 0.5-2.3-0.2-4.5 3.4-4.5 3.4l2.3-1.3c0 0-2.2 2.5-2.3 3.2-0.2 0.7 0.7 2.7 0.7 2.7s0.5-1.1 0.5-2c0-0.6 1.1-1.6 1.7-2-0.7 0.6-1.8 2.1-1 5.1 0 0 0.5-0.3 1-2 0.5-1.8 4.1-3.9 4.1-3.9s2.4 0.4 2.2 1.8c-0.3 1.4-0.1 2.8 0.1 3.1 0 0 2-3.1 1.6-3.9-0.4-0.8-0.9-1.8-0.9-1.8s7.6 0.4 8.5 0.1C29.1 54.3 30.4 51.4 29.8 48zM25.1 21.9c0 0 0.3-0.7 0.8-0.9 0.6-0.2 1.3 0.2 1.3 0.2C26.4 22.7 25.1 21.9 25.1 21.9zM31 19.6c0.6-0.2 1.3 0.2 1.3 0.2-0.7 1.5-2.1 0.7-2.1 0.7S30.4 19.8 31 19.6z" fill="#3d9970" data-fill-palette-color="accent"></path><path d="M44.3 75c0.3-0.3 0.6-0.5 0.8-0.7l0-0.1-2.7-3.2c0 0 3 1.5 3 0.9s-3.7-5.3-3.7-5.3l6.9 5.3c1.1-0.4 2.2-0.3 4.2-0.4 4.1-0.2 5.1-3.2 5.6-6 0-0.2 0.1-0.4 0.2-0.6l-5.1-5.6 7.8 5.1c1.1 0.1 2.5 0.1 3.9-1 0.3-0.2 0.6-0.5 0.8-0.8-1-0.8-4.1-3-4.4-3l5.6 1.3c0.9-1.8 1-3.3 2.9-3.6 0 0-10.6-5.9-13-5.9 0 0-1.5 2.5-6 3.2-4.5 0.7-4.1-0.1-5.6 1-1.5 1.1-3.7 5.1-8.2 5.3-4.5 0.3-2.4-1.3-3.1-1.3-0.6 0-3 0.8-4.7 3.9 0 0 4.2 4.3 4.5 7.7 0.3 3.3 4.2 7.6 4.2 7.6s0.6-3.6 2.6-3.4C42.8 75.7 40.3 78.7 44.3 75z" fill="#3d9970" data-fill-palette-color="accent"></path><path d="M60.3 66C60.3 66 60.2 66 60.3 66L60.3 66z" fill="#3d9970" data-fill-palette-color="accent"></path><path d="M79.2 80c-2.9-0.5-5.8-5.4-5.8-5.4s5.4 4.2 6.5 4.6l-1.5-4.5c0 0 1.4 1.1 4.1 2.2 2.7 1.1 8 2.4 8 2.4s-7.4-4.5-10-6.6l8.5 3.8c0 0-9.2-7.7-9.9-10l11.1 5-5.8-5c0 0-13.7-8.5-15-7.2-1.4 1.4 0.8 4.9-4.9 6.1-3 0.6-3.9 0.6-4.1 0.6 0.1 0 0.2 0.1 0.2 0.3 0 0.8-2.4 7.3-5.7 7.3-3.2 0-4.3-1.5-7 0.1-2.7 1.6 1.2 5.4-2 5.3-3.2-0.1-5.1-3.5-5.7-0.4 0 0-1.2 7.2 5.4 8.7 6.6 1.5 17.7 12.2 21.4 10.6 0 0-6.6-4.7-5.7-6.4 0.9-1.6-1.2-4.9-1.2-4.9s3.1 3.1 3.8 2.7c0.7-0.4 1.9 4.1 3 3.1 0 0-1.1-2.3 0.5-3.1 5.1-2.6 5.4 1.5 8.2-1.3l-10.8-7.2 4.5 0.4L62.4 75l11.9 8.8-5.1-0.9 6.9 4.1h0.4c0.3-0.4 0.6-0.8 0.9-1.2 3.2-4.6 5.8-3 5.8-3S83.5 80.7 79.2 80z" fill="#3d9970" data-fill-palette-color="accent"></path><path d="M56.3 50.3L56 50.3c-1.9-0.3-3.6-1.3-4.9-2.7-2.6-2.8-6.3-3.5-6.3-3.5l-1.6-7.4c0 0 0-0.2 0-0.5-1.2-0.6-2.9-1.1-4.8-0.9-3.4 0.5-3.8 4.7-3.8 4.7-3.4-2.6-6.1-1.6-6.9-1.2-0.1 3 0.9 3.9 1.5 4.3 0.1 0.1 0.2 0.3 0.3 0.5l2.6 4.9c0 0-1.9 4.8-1.2 8.6l-1 4.9c0 0 3-4.3 4.9-4.3 1.9 0-0.8 3.5 3.8 1.6s3.5-4.3 8.4-5.4c1.6-0.3 2.7-0.4 3.6-0.4l-4.7-4.6 6.6 4.4C53.4 53 54.5 52.3 56.3 50.3z" fill="#3d9970" data-fill-palette-color="accent"></path></g></svg></g></svg></g></svg></g></svg></g><g></g></svg></g><defs></defs></svg><rect width="329.6814715398502" height="247.2" fill="none" stroke="none" visibility="hidden"></rect></g></svg></g></svg>